<svg width="50" height="73" viewBox="0 0 50 73" fill="none" xmlns="http://www.w3.org/2000/svg">
<rect x="32.906" y="66.3524" width="8.07737" height="5.40884" fill="#29B3E5"/>
<rect x="30.5637" y="19.3666" width="8.07737" height="21.6946" fill="#29B3E5"/>
<rect x="38.2517" y="30.925" width="9.81541" height="8.61327" fill="#29B3E5"/>
<rect x="30.6792" y="29.9323" width="15.9081" height="8.61327" fill="#29B3E5"/>
<rect x="23.395" y="21.8901" width="16.3884" height="8.61327" fill="#29B3E5"/>
<rect x="37.8096" y="26.8136" width="3.70685" height="8.61327" fill="#29B3E5"/>
<rect x="14.1306" y="18.1238" width="1.83944" height="25.3738" fill="#29B3E5"/>
<rect width="3.8689" height="23.0463" transform="matrix(-1 0 0 1 15.9963 18.8752)" fill="#29B3E5"/>
<rect width="3.49699" height="22.5818" transform="matrix(-1 0 0 1 14.2327 18.2064)" fill="#29B3E5"/>
<rect width="3.68475" height="16.5326" transform="matrix(0 -1 -1 0 35.1096 14.6849)" fill="#29B3E5"/>
<rect width="3.68475" height="11.5608" transform="matrix(0 -1 -1 0 32.5391 11.0549)" fill="#29B3E5"/>
<rect width="3.68475" height="13.2183" transform="matrix(0 -1 -1 0 33.3953 13.875)" fill="#29B3E5"/>
<rect width="3.68475" height="6.88139" transform="matrix(0 -1 -1 0 30.3416 7.39124)" fill="#29B3E5"/>
<rect width="3.72011" height="6.66993" transform="matrix(0 -1 -1 0 28.5842 9.21252)" fill="#29B3E5"/>
<rect width="3.72011" height="6.66993" transform="matrix(0 -1 -1 0 28.3044 10.1901)" fill="#29B3E5"/>
<rect width="3.72011" height="4.91224" transform="matrix(0 -1 -1 0 29.2124 5.04944)" fill="#29B3E5"/>
<rect width="3.68475" height="6.88139" transform="matrix(0 -1 -1 0 31.438 9.21252)" fill="#29B3E5"/>
<rect width="3.49699" height="14.1914" transform="matrix(-1 0 0 1 12.6187 26.1968)" fill="#29B3E5"/>
<rect width="3.49699" height="4.93919" transform="matrix(-1 0 0 1 11.585 28.8127)" fill="#29B3E5"/>
<rect width="5.54681" height="8.7642" transform="matrix(-1 0 0 1 7.16016 33.0206)" fill="#29B3E5"/>
<rect width="5.54681" height="5.46283" transform="matrix(-1 0 0 1 6.67944 34.4857)" fill="#29B3E5"/>
<rect width="5.54681" height="5.46283" transform="matrix(-1 0 0 1 8.21704 32.2893)" fill="#29B3E5"/>
<rect width="5.54681" height="5.46283" transform="matrix(-1 0 0 1 10.3638 34.894)" fill="#29B3E5"/>
<rect width="3.09058" height="1.07488" transform="matrix(-1 0 0 1 8.01562 40.2423)" fill="#29B3E5"/>
<rect x="15.4971" y="19.1112" width="21.6164" height="39.7035" fill="#29B3E5"/>
<rect x="33.1401" y="57.8898" width="9.39952" height="8.46262" fill="#F6E2B9"/>
<rect x="9.12158" y="57.8302" width="10.312" height="8.46262" fill="#F6E2B9"/>
<rect x="31.251" y="57.7346" width="7.31254" height="3.70469" fill="#F6E2B9"/>
<rect x="29.3813" y="57.6981" width="7.31254" height="2.86957" fill="#F6E2B9"/>
<rect x="14.6836" y="57.5919" width="7.31254" height="2.86957" fill="#F6E2B9"/>
<rect x="10.6025" y="67.0778" width="8.07737" height="4.46974" fill="#29B3E5"/>
<rect width="8.07737" height="2.70442" transform="matrix(1 0 0 -1 6.51514 71.5475)" fill="#29B3E5"/>
<rect x="37.115" y="68.8431" width="8.07737" height="2.35176" fill="#29B3E5"/>
<path d="M44.4606 70.3983V69.6479H46.1206V70.3983V72.1208H45.319H43.4431H32.1714V71.2595V68.8197H32.8825L32.8435 71.2595H41.0542V70.4576H41.7939V71.2595H43.4431H43.5454V70.3983H44.3185V71.2595H45.3048L45.2906 70.3983H44.4606Z" fill="black"/>
<path d="M46.1206 70.3983V69.6479H44.4606V70.3983H45.2906M46.1206 70.3983H45.2906M46.1206 70.3983V72.1208H45.319M45.319 72.1208L45.3048 71.2595M45.319 72.1208H43.4431M45.2906 70.3983L45.3048 71.2595M45.3048 71.2595H44.3185M43.4431 71.2595V72.1208M43.4431 71.2595H43.5454M43.4431 71.2595H41.7939M43.4431 72.1208H32.1714V71.2595M44.3185 71.2595V70.3983H43.5454V71.2595M44.3185 71.2595H43.5454M32.1714 71.2595V68.8197H32.8825L32.8435 71.2595M32.1714 71.2595H32.8435M41.7939 71.2595V70.4576H41.0542V71.2595M41.7939 71.2595H41.0542M41.0542 71.2595H32.8435" stroke="black"/>
<path d="M7.12505 70.3983V69.6479H5.46512V70.3983V72.1208H6.26666H8.1426H19.4143V71.2595V68.8197H18.7032L18.7422 71.2595H10.5315V70.4576H9.7918V71.2595H8.1426H8.04028V70.3983H7.26716V71.2595H6.28087L6.29509 70.3983H7.12505Z" fill="black"/>
<path d="M5.46512 70.3983V69.6479H7.12505V70.3983H6.29509M5.46512 70.3983H6.29509M5.46512 70.3983V72.1208H6.26666M6.26666 72.1208L6.28087 71.2595M6.26666 72.1208H8.1426M6.29509 70.3983L6.28087 71.2595M6.28087 71.2595H7.26716M8.1426 71.2595V72.1208M8.1426 71.2595H8.04028M8.1426 71.2595H9.7918M8.1426 72.1208H19.4143V71.2595M7.26716 71.2595V70.3983H8.04028V71.2595M7.26716 71.2595H8.04028M19.4143 71.2595V68.8197H18.7032L18.7422 71.2595M19.4143 71.2595H18.7422M9.7918 71.2595V70.4576H10.5315V71.2595M9.7918 71.2595H10.5315M10.5315 71.2595H18.7422" stroke="black"/>
<path d="M33.6864 68.8431H32.906V65.4562H33.6864V66.3614V68.8431Z" fill="black" stroke="black"/>
<path d="M17.8993 68.8431H18.6797V65.4562H17.8993V66.3614V68.8431Z" fill="black" stroke="black"/>
<path d="M40.2562 66.2928H33.73V67.0777H40.2562V66.2928Z" fill="black" stroke="black"/>
<path d="M11.3295 66.2928H17.8557V67.0777H11.3295V66.2928Z" fill="black" stroke="black"/>
<path d="M32.8815 66.3524H32.0922L32.0922 62.2519H31.2576V61.4581H30.4502V60.6629L28.8739 60.6643V59.8678H29.6621L27.9881 59.8141C27.9845 59.5364 27.9796 58.981 27.9881 58.981H29.6621V59.8678H30.4502H31.1625L31.2576 61.4581V60.6643H32.0922L32.0922 61.5896H32.8815H33.6436V62.2519H32.8815V66.3524Z" fill="black"/>
<path d="M35.1404 62.2519H33.7706V63.0774H35.1404V62.2519Z" fill="black"/>
<path d="M32.8815 61.5896H32.0922V62.2519M32.8815 61.5896V62.2519M32.8815 61.5896H33.6436V62.2519H32.8815M32.8815 62.2519V66.3524H32.0922L32.0922 62.2519M32.0922 62.2519L32.0922 60.6643H31.2576V61.4581M32.0922 62.2519H31.2576V61.4581M31.2576 61.4581H30.4502V60.6629M31.2576 61.4581L31.1625 59.8678H30.4502M30.4502 59.8678V60.6629M30.4502 59.8678H29.6621M30.4502 60.6629L28.8739 60.6643V59.8678H29.6621M29.6621 59.8678V58.981C29.1076 58.981 27.9965 58.981 27.9881 58.981C27.9796 58.981 27.9845 59.5364 27.9881 59.8141L29.6621 59.8678ZM33.7706 62.2519H35.1404V63.0774H33.7706V62.2519Z" stroke="black"/>
<path d="M18.7039 66.3524H19.4932L19.4932 62.2519H20.3278V61.4581H21.1353V60.6629L22.7115 60.6643V59.8678H21.9234L23.5974 59.8141C23.6009 59.5364 23.6058 58.981 23.5974 58.981H21.9234V59.8678H21.1353H20.423L20.3278 61.4581V60.6643H19.4932L19.4932 61.5896H18.7039H17.9419V62.2519H18.7039V66.3524Z" fill="black"/>
<path d="M16.445 62.2519H17.8149V63.0774H16.445V62.2519Z" fill="black"/>
<path d="M18.7039 61.5896H19.4932V62.2519M18.7039 61.5896V62.2519M18.7039 61.5896H17.9419V62.2519H18.7039M18.7039 62.2519V66.3524H19.4932L19.4932 62.2519M19.4932 62.2519L19.4932 60.6643H20.3278V61.4581M19.4932 62.2519H20.3278V61.4581M20.3278 61.4581H21.1353V60.6629M20.3278 61.4581L20.423 59.8678H21.1353M21.1353 59.8678V60.6629M21.1353 59.8678H21.9234M21.1353 60.6629L22.7115 60.6643V59.8678H21.9234M21.9234 59.8678V58.981C22.4779 58.981 23.589 58.981 23.5974 58.981C23.6058 58.981 23.6009 59.5364 23.5974 59.8141L21.9234 59.8678ZM17.8149 62.2519H16.445V63.0774H17.8149V62.2519Z" stroke="black"/>
<path d="M0.539343 33.8007H1.40137" stroke="black"/>
<path d="M47.449 38.9825V38.29H49.0513V38.9825H48.0925V39.7246H47.3483V40.5802H46.6653H45.5088V41.3994H43.3014V40.5802H41.6592V39.834H46.6653V39.7246V38.9825H47.449Z" fill="black"/>
<path d="M47.449 38.9825V38.29H49.0513V38.9825H48.0925M47.449 38.9825H48.0925M47.449 38.9825H46.6653V39.7246M48.0925 38.9825V39.7246H47.3483M46.6653 39.7246H47.3483M46.6653 39.7246V39.834M47.3483 39.7246V40.5802H46.6653M46.6653 40.5802V39.834M46.6653 40.5802H45.5088M46.6653 39.834H41.6592V40.5802H43.3014M45.5088 40.5802V41.3994H43.3014V40.5802M45.5088 40.5802H43.3014" stroke="black"/>
<path d="M2.10229 41.0807V40.3882H0.500003V41.0807H1.4588V41.8228H2.20293V42.6784H2.88595H4.04251V43.4975H6.24989V42.6784H7.89209V41.9321H2.88595V41.8228V41.0807H2.10229Z" fill="black"/>
<path d="M2.10229 41.0807V40.3882H0.500003V41.0807H1.4588M2.10229 41.0807H1.4588M2.10229 41.0807H2.88595V41.8228M1.4588 41.0807V41.8228H2.20293M2.88595 41.8228H2.20293M2.88595 41.8228V41.9321M2.20293 41.8228V42.6784H2.88595M2.88595 42.6784V41.9321M2.88595 42.6784H4.04251M2.88595 41.9321H7.89209V42.6784H6.24989M4.04251 42.6784V43.4975H6.24989V42.6784M4.04251 42.6784H6.24989" stroke="black"/>
<path d="M43.1696 39.0299V39.8234H40.789V39.0299V38.3125H39.2074V37.5951V37.4123H38.3335V33.4031H39.1158L39.1311 32.5897H39.9199V34.0716H39.1311L39.2074 37.4123V36.6282H39.9199V37.5951H40.789H41.5866V39.0299H43.1696Z" fill="black"/>
<path d="M40.789 39.0299V39.8234H43.1696V39.0299H41.5866M40.789 39.0299H41.5866M40.789 39.0299V38.3125M41.5866 39.0299V37.5951H40.789M40.789 37.5951V38.3125M40.789 37.5951H39.9199M40.789 38.3125H39.2074V37.5951M39.2074 37.5951H39.9199M39.2074 37.5951V37.4123M39.9199 37.5951V36.6282H39.2074V37.4123M39.2074 37.4123H38.3335V33.4031H39.1158M39.2074 37.4123L39.1311 34.0716M39.1158 33.4031L39.1311 34.0716M39.1158 33.4031L39.1311 32.5897H39.9199V34.0716H39.1311" stroke="black"/>
<path d="M6.38166 41.128V41.9216H8.7623V41.128V40.4106H10.3439V39.6933V39.5104H11.2178V35.5012H10.4355L10.4202 34.6879H9.63139V36.1698H10.4202L10.3439 39.5104V38.7263H9.63139V39.6933H8.7623H7.96465V41.128H6.38166Z" fill="black"/>
<path d="M8.7623 41.128V41.9216H6.38166V41.128H7.96465M8.7623 41.128H7.96465M8.7623 41.128V40.4106M7.96465 41.128V39.6933H8.7623M8.7623 39.6933V40.4106M8.7623 39.6933H9.63139M8.7623 40.4106H10.3439V39.6933M10.3439 39.6933H9.63139M10.3439 39.6933V39.5104M9.63139 39.6933V38.7263H10.3439V39.5104M10.3439 39.5104H11.2178V35.5012H10.4355M10.3439 39.5104L10.4202 36.1698M10.4355 35.5012L10.4202 36.1698M10.4355 35.5012L10.4202 34.6879H9.63139V36.1698H10.4202" stroke="black"/>
<path d="M39.9219 33.2704V32.5897H41.5376V33.2704V34.127H42.3645V33.2704H42.4383V33.2235V32.8359L43.2536 32.5098H44.0688V32.8359V33.2235H42.4383V33.2704H43.3613V34.127V34.9835V35.8193H44.0688V36.655H45.8194V35.7066H44.8667V34.9103H46.5873V36.655V37.3988L44.0688 37.4882V38.9631H43.3613V36.655H42.3645V34.9835H41.5376H40.7298V33.2704H39.9219Z" fill="black"/>
<path d="M41.5376 33.2704V32.5897H39.9219V33.2704H40.7298M41.5376 33.2704H40.7298M41.5376 33.2704V34.127M40.7298 33.2704V34.9835H41.5376M41.5376 34.9835V34.127M41.5376 34.9835H42.3645M41.5376 34.127H42.3645M43.3613 34.127V34.9835M43.3613 34.127H42.3645M43.3613 34.127V33.2704H42.4383M43.3613 34.9835H42.3645M43.3613 34.9835V35.8193M42.3645 34.127V33.2704H42.4383M42.4383 33.2704V33.2235M42.4383 32.8359V33.2235M42.4383 32.8359H43.2536M42.4383 32.8359L43.2536 32.5098M44.0688 32.8359V33.2235H42.4383M44.0688 32.8359H43.2536M44.0688 32.8359V32.5098H43.2536M43.2536 32.8359V32.5098M42.3645 34.9835V36.655H43.3613V35.8193M43.3613 35.8193H44.0688V36.655M43.3613 35.8193V38.9631H44.0688V37.4882M44.0688 36.655V37.4882M44.0688 36.655H45.8194M46.5873 36.655V37.3988L44.0688 37.4882M46.5873 36.655V34.9103H44.8667V35.7066H45.8194V36.655M46.5873 36.655H45.8194" stroke="black"/>
<path d="M9.62939 35.3683V34.6876H8.01362V35.3683V36.2249H7.18676V35.3683H7.11292V35.3214V34.9338L6.29768 34.6077H5.48244V34.9338V35.3214H7.11292V35.3683H6.19001V36.2249V37.0814V37.9172H5.48244V38.7529H3.73185V37.8045H4.68461V37.0082H2.96396V38.7529V39.4967L5.48244 39.5861V41.061H6.19001V38.7529H7.18676V37.0814H8.01362H8.82151V35.3683H9.62939Z" fill="black"/>
<path d="M8.01362 35.3683V34.6876H9.62939V35.3683H8.82151M8.01362 35.3683H8.82151M8.01362 35.3683V36.2249M8.82151 35.3683V37.0814H8.01362M8.01362 37.0814V36.2249M8.01362 37.0814H7.18676M8.01362 36.2249H7.18676M6.19001 36.2249V37.0814M6.19001 36.2249H7.18676M6.19001 36.2249V35.3683H7.11292M6.19001 37.0814H7.18676M6.19001 37.0814V37.9172M7.18676 36.2249V35.3683H7.11292M7.11292 35.3683V35.3214M7.11292 34.9338V35.3214M7.11292 34.9338H6.29768M7.11292 34.9338L6.29768 34.6077M5.48244 34.9338V35.3214H7.11292M5.48244 34.9338H6.29768M5.48244 34.9338V34.6077H6.29768M6.29768 34.9338V34.6077M7.18676 37.0814V38.7529H6.19001V37.9172M6.19001 37.9172H5.48244V38.7529M6.19001 37.9172V41.061H5.48244V39.5861M5.48244 38.7529V39.5861M5.48244 38.7529H3.73185M2.96396 38.7529V39.4967L5.48244 39.5861M2.96396 38.7529V37.0082H4.68461V37.8045H3.73185V38.7529M2.96396 38.7529H3.73185" stroke="black"/>
<path d="M39.9604 31.6682V32.5836H41.5318H41.6828V31.6682H39.9604Z" fill="black" stroke="black"/>
<path d="M9.59082 33.7661V34.6815H8.01951H7.86851V33.7661H9.59082Z" fill="black" stroke="black"/>
<path d="M40.7908 30.1912V31.6539H41.6637V30.9697H41.5363V30.1912H40.7908Z" fill="black" stroke="black"/>
<path d="M8.7605 32.2893V33.7521H7.88755V33.0679H8.01495V32.2893H8.7605Z" fill="black" stroke="black"/>
<path d="M39.1415 21.8901H39.9347V23.577H40.7088V25.7799H41.4639L41.5164 28.3603H40.7088V26.8646H39.7961V24.2938H39.0793V21.8901H39.1415Z" fill="black"/>
<path d="M39.1415 21.8901H39.9347M39.9347 21.8901H39.0793V24.2938H39.9347V23.577M39.9347 21.8901V23.577M39.9347 23.577H40.7088M40.7088 23.577H39.7961V26.8646H40.7088M40.7088 23.577V25.7799M40.7088 26.8646V25.7799M40.7088 26.8646V28.3603H41.5164L41.4639 25.7799H40.7088" stroke="black"/>
<path d="M10.4098 23.9883H9.61655V25.6751H8.84242V27.878H8.0874L8.03484 30.4585H8.84242V28.9628H9.75513V26.3919H10.4719V23.9883H10.4098Z" fill="black"/>
<path d="M10.4098 23.9883H9.61655M9.61655 23.9883H10.4719V26.3919H9.61655V25.6751M9.61655 23.9883V25.6751M9.61655 25.6751H8.84242M8.84242 25.6751H9.75513V28.9628H8.84242M8.84242 25.6751V27.878M8.84242 28.9628V27.878M8.84242 28.9628V30.4585H8.03484L8.0874 27.878H8.84242" stroke="black"/>
<path d="M41.5356 28.3604H42.3245V29.2592H46.5197V30.0582L45.8253 30.0659H47.4367V30.8311H48.1387V31.6891H49.0174V38.2588H47.4613V37.5366H48.1491L48.1387 32.5843H47.4367V31.6891H46.5685V30.8311H45.8253V30.0659L42.3245 30.1042V30.9492H41.5356V28.3604Z" fill="black"/>
<path d="M42.3245 29.2592V28.3604H41.5356V30.9492H42.3245V30.1042M42.3245 29.2592H46.5197V30.0582L45.8253 30.0659M42.3245 29.2592V30.1042M42.3245 30.1042L45.8253 30.0659M45.8253 30.0659V30.8311H46.5685M45.8253 30.0659H47.4367V30.8311H46.5685M46.5685 30.8311V31.6891H47.4367M46.5685 30.8311H48.1387V31.6891M48.1387 31.6891H47.4367M48.1387 31.6891V32.5843M48.1387 31.6891H49.0174V38.2588H47.4613V37.5366H48.1491L48.1387 32.5843M47.4367 31.6891V32.5843H48.1387" stroke="black"/>
<path d="M8.01562 30.4585H7.22673V31.3574H3.03154V32.1564L3.72599 32.164H2.11461V32.9292H1.41254V33.7872H0.533829V40.3569H2.09V39.6347H1.40219L1.41254 34.6825H2.11461V33.7872H2.98277V32.9292H3.72599V32.164L7.22673 32.2023V33.0473H8.01562V30.4585Z" fill="black"/>
<path d="M7.22673 31.3574V30.4585H8.01562V33.0473H7.22673V32.2023M7.22673 31.3574H3.03154V32.1564L3.72599 32.164M7.22673 31.3574V32.2023M7.22673 32.2023L3.72599 32.164M3.72599 32.164V32.9292H2.98277M3.72599 32.164H2.11461V32.9292H2.98277M2.98277 32.9292V33.7872H2.11461M2.98277 32.9292H1.41254V33.7872M1.41254 33.7872H2.11461M1.41254 33.7872V34.6825M1.41254 33.7872H0.533829V40.3569H2.09V39.6347H1.40219L1.41254 34.6825M2.11461 33.7872V34.6825H1.41254" stroke="black"/>
<path d="M13.6641 16.106L13.6379 17.2775H15.4914V16.106H13.6641Z" fill="#D22D17"/>
<path d="M37.4787 18.1134L14.4019 18.0703V18.8456H37.4787V18.1134Z" fill="black"/>
<path d="M35.9484 13.9096L16.2466 13.875V14.4973H35.9484V13.9096Z" fill="black"/>
<path d="M36.7036 14.5196L15.5308 14.3083V18.1057H36.7036V14.5196Z" fill="#D22D17"/>
<path d="M35.9482 13.9126V17.3258H36.7034V13.9126H35.9482Z" fill="black"/>
<path d="M15.4912 14.3083V16.4564H16.2464V14.3083H15.4912Z" fill="black"/>
<path d="M36.7143 16.7637L36.7034 18.1056H37.4792V16.7637H36.7143Z" fill="black"/>
<path d="M14.7663 16.4558L14.7554 17.2552H15.5312V16.4558H14.7663Z" fill="black"/>
<path d="M14.6024 15.2804L14.5891 16.0798H15.5314V15.2804H14.6024Z" fill="black"/>
<path d="M14.6001 18.0769L14.5891 17.2775H15.365V18.0769H14.6001Z" fill="black"/>
<path d="M13.8247 15.2804L13.8137 16.0798H14.5896V15.2804H13.8247Z" fill="black"/>
<path d="M13.8247 18.0769L13.8137 17.2775H14.5896V18.0769H13.8247Z" fill="black"/>
<path d="M13.8247 14.4814L13.8137 15.2809H14.5896V14.4814H13.8247Z" fill="black"/>
<path d="M13.8247 18.8759L13.8137 18.0764H14.5896V18.8759H13.8247Z" fill="black"/>
<path d="M13.0493 14.4814L13.0383 15.2809H13.8142V14.4814H13.0493Z" fill="black"/>
<path d="M13.0493 18.8759L13.0383 18.0764H13.8142V18.8759H13.0493Z" fill="black"/>
<path d="M6.82678 14.3784L6.81421 15.2809H7.70515V14.3784H6.82678Z" fill="black"/>
<path d="M6.82678 18.9789L6.81421 18.0764H7.70515V18.9789H6.82678Z" fill="black"/>
<path d="M6.94165 15.151V16.0798H10.4797V15.151H6.94165Z" fill="black"/>
<path d="M5.93262 12.0853V15.2809H11.4878V12.0853H5.93262Z" fill="#D22D17"/>
<path d="M5.54492 19.5236V21.2721H11.5849V19.5236H5.54492Z" fill="#D22D17"/>
<path d="M6.46558 18.2063V19.9119H12.5056V18.2063H6.46558Z" fill="#D22D17"/>
<path d="M8.6731 13.6831V19.6742H13.8137V13.6831H8.6731Z" fill="#D22D17"/>
<path d="M6.94165 18.2063V17.2775H10.4797V18.2063H6.94165Z" fill="black"/>
<path d="M8.6731 15.9985V16.8032H11.2569V15.9985H8.6731Z" fill="black"/>
<path d="M8.6731 17.3587V16.554H11.2569V17.3587H8.6731Z" fill="black"/>
<path d="M13.0493 13.6825L13.0383 14.4819H13.8142V13.6825H13.0493Z" fill="black"/>
<path d="M13.0493 19.6747L13.0383 18.8752H13.8142V19.6747H13.0493Z" fill="black"/>
<path d="M12.2741 13.6825L12.2632 14.4819H13.039V13.6825H12.2741Z" fill="black"/>
<path d="M12.2789 19.6747L12.2632 18.8752H13.3745V19.6747H12.2789Z" fill="black"/>
<path d="M5.91095 14.0817L5.89771 15.2809H6.83598V14.0817H5.91095Z" fill="black"/>
<path d="M6.05007 19.2756L6.03882 18.0764H6.83573V19.2756H6.05007Z" fill="black"/>
<path d="M5.18091 13.6084L5.15723 14.2125H6.83514V13.6084H5.18091Z" fill="black"/>
<path d="M5.18091 19.7491L5.15723 19.1449H6.83514V19.7491H5.18091Z" fill="black"/>
<path d="M12.2741 12.8836L12.2632 13.6831H13.039V12.8836H12.2741Z" fill="black"/>
<path d="M12.0859 20.4737L12.0723 19.6742H13.039V20.4737H12.0859Z" fill="black"/>
<path d="M11.4987 12.8836L11.4878 13.6831H12.2636V12.8836H11.4987Z" fill="black"/>
<path d="M11.4987 20.4737L11.4878 19.6742H12.2636V20.4737H11.4987Z" fill="black"/>
<path d="M5.16818 12.8088L5.15723 13.6083H5.93307V12.8088H5.16818Z" fill="black"/>
<path d="M5.16818 20.5484L5.15723 19.7489H5.93307V20.5484H5.16818Z" fill="black"/>
<path d="M11.4987 12.0847L11.4878 12.8842H12.2636V12.0847H11.4987Z" fill="black"/>
<path d="M11.4987 21.2725L11.4878 20.473H12.2636V21.2725H11.4987Z" fill="black"/>
<path d="M4.02295 11.2864V12.0853H10.4798V11.2864H4.02295Z" fill="black"/>
<path d="M4.02295 22.071V21.2721H10.4798V22.071H4.02295Z" fill="black"/>
<path d="M9.50038 12.0853L9.47192 12.8842H11.4879V12.0853H9.50038Z" fill="black"/>
<path d="M9.50145 21.2719L9.47192 20.473H11.5637V21.2719H9.50145Z" fill="black"/>
<path d="M4.0499 12.0853L4.02295 12.8842H5.93267V12.0853H4.0499Z" fill="black"/>
<path d="M4.0499 21.2719L4.02295 20.473H5.93267V21.2719H4.0499Z" fill="black"/>
<path d="M14.7663 17.2547L14.7554 18.1056H15.5312V17.2547H14.7663Z" fill="#D22D17"/>
<path d="M36.6704 13.8939H35.1027V13.1301H34.2666V12.3744V11.5784L33.4385 11.5945V10.7825V10.2824H33.3281H32.5342V7.7522H33.3281V9.4077H33.4385H34.2666V10.7825H35.0766V12.3744H35.8866V13.1301H36.6704V13.8939Z" fill="black"/>
<path d="M35.1027 13.1301V13.8939H36.6704V13.1301H35.8866M35.1027 13.1301H35.8866M35.1027 13.1301H34.2666V12.3744M35.8866 13.1301V12.3744H35.0766M34.2666 12.3744H35.0766M34.2666 12.3744V11.5784M35.0766 12.3744V10.7825H34.2666V11.5784M34.2666 11.5784L33.4385 11.5945V10.7825V10.2824M34.2666 11.5784V9.4077H33.4385M33.4385 9.4077V10.2824M33.4385 9.4077H33.3281M33.4385 10.2824H33.3281M33.3281 10.2824H32.5342V7.7522H33.3281V9.4077M33.3281 10.2824V9.4077" stroke="black"/>
<path d="M40.7588 39.9344H38.3687V41.0988H37.094V42.2509V43.4644L35.8315 43.4398V44.6778V45.4401H35.6633H34.4529V49.2976H35.6633L35.5781 47.3971H35.7364H36.3382H37.1775L37.1197 44.6778H38.3288V42.2509H39.5637V41.0988H40.7588V39.9344Z" fill="black"/>
<path d="M38.3687 41.0988V39.9344H40.7588V41.0988H39.5637M38.3687 41.0988H39.5637M38.3687 41.0988H37.094V42.2509M39.5637 41.0988V42.2509H38.3288M37.094 42.2509H38.3288M37.094 42.2509V43.4644M38.3288 42.2509V44.6778H37.094V43.4644M37.094 43.4644L35.8315 43.4398V44.6778V45.4401M37.094 43.4644L37.1775 47.3971H36.3382H35.7364M35.7364 47.3971L35.8315 45.4401M35.7364 47.3971H35.5781M35.8315 45.4401H35.6633M35.6633 45.4401H34.4529V49.2976H35.6633L35.5781 47.3971M35.6633 45.4401L35.5781 47.3971" stroke="black"/>
<path d="M16.842 13.8939H18.4098V13.1301H19.2459V12.3744V11.5784L20.074 11.5945V10.7825V10.2824H20.1843H20.9783V7.7522H20.1843V9.4077H20.074H19.2459V10.7825H18.4359V12.3744H17.6259V13.1301H16.842V13.8939Z" fill="black"/>
<path d="M18.4098 13.1301V13.8939H16.842V13.1301H17.6259M18.4098 13.1301H17.6259M18.4098 13.1301H19.2459V12.3744M17.6259 13.1301V12.3744H18.4359M19.2459 12.3744H18.4359M19.2459 12.3744V11.5784M18.4359 12.3744V10.7825H19.2459V11.5784M19.2459 11.5784L20.074 11.5945V10.7825V10.2824M19.2459 11.5784V9.4077H20.074M20.074 9.4077V10.2824M20.074 9.4077H20.1843M20.074 10.2824H20.1843M20.1843 10.2824H20.9783V7.7522H20.1843V9.4077M20.1843 10.2824V9.4077" stroke="black"/>
<path d="M10.3637 40.4835H12.8373V41.043H14.1797V42.1951V43.4086L15.4422 43.3841V44.622V45.3843H15.6104H16.8208V49.2418H15.6104V47.544H14.077L14.1496 44.622H12.9448V42.1951H11.71L11.6422 41.043H10.3637V40.4835Z" fill="black"/>
<path d="M12.8373 41.043V40.4835H10.3637V41.043H11.6422M12.8373 41.043H11.6422M12.8373 41.043H14.1797V42.1951M11.6422 41.043L11.71 42.1951H12.9448M14.1797 42.1951H12.9448M14.1797 42.1951V43.4086M12.9448 42.1951V44.622H14.1797V43.4086M14.1797 43.4086L15.4422 43.3841V44.622V45.3843M14.1797 43.4086L14.077 47.544H15.6104M15.6104 47.544L15.4422 45.3843M15.6104 47.544V46.7179M15.4422 45.3843H15.6104M15.6104 45.3843H16.8208V49.2418H15.6104V46.7179M15.6104 45.3843V46.7179" stroke="black"/>
<path d="M31.7659 8.62709H32.5389V6.11328H31.7659V8.62709Z" fill="black" stroke="black"/>
<path d="M33.2744 47.853H34.4529V51.6854H33.2744V47.853Z" fill="black" stroke="black"/>
<path d="M21.7463 8.62709H20.9733V6.11328H21.7463V8.62709Z" fill="black" stroke="black"/>
<path d="M17.9993 47.853H16.8208V51.6854H17.9993V47.853Z" fill="black" stroke="black"/>
<path d="M30.8252 6.76174H31.5982V4.61389H30.8252V6.76174Z" fill="black" stroke="black"/>
<path d="M31.8401 50.6967H33.0186V53.9712H31.8401V50.6967Z" fill="black" stroke="black"/>
<path d="M22.6873 6.76174H21.9143V4.61389H22.6873V6.76174Z" fill="black" stroke="black"/>
<path d="M19.4336 50.6967H18.2551V53.9712H19.4336V50.6967Z" fill="black" stroke="black"/>
<path d="M30.0522 5.54901H30.8252V3.26147H30.0522V5.54901Z" fill="black" stroke="black"/>
<path d="M30.6616 52.5456H31.8401V56.0331H30.6616V52.5456Z" fill="black" stroke="black"/>
<path d="M23.4602 5.54901H22.6872V3.26147H23.4602V5.54901Z" fill="black" stroke="black"/>
<path d="M20.6121 52.5456H19.4336V56.0331H20.6121V52.5456Z" fill="black" stroke="black"/>
<path d="M30.0528 4.03455V3.26101H29.2124V4.03455H30.0528Z" fill="black" stroke="black"/>
<path d="M30.6626 54.8546V56.0339H29.3813V54.8546H30.6626Z" fill="black" stroke="black"/>
<path d="M23.4596 4.03455V3.26101H24.3V4.03455H23.4596Z" fill="black" stroke="black"/>
<path d="M20.6111 54.8546V56.0339H21.8923V54.8546H20.6111Z" fill="black" stroke="black"/>
<path d="M30.0521 3.26147V2.1138H28.5381V3.26147H30.0521Z" fill="black" stroke="black"/>
<path d="M30.6616 56.0331V57.7828H28.3535V56.0331H30.6616Z" fill="black" stroke="black"/>
<path d="M23.4604 3.26147V2.1138H24.9744V3.26147H23.4604Z" fill="black" stroke="black"/>
<path d="M20.612 56.0331V57.7828H22.9202V56.0331H20.612Z" fill="black" stroke="black"/>
<path d="M29.2125 2.47693V1.32925H27.6985V2.47693H29.2125Z" fill="black" stroke="black"/>
<path d="M29.3814 57.229V58.9787H27.0732V57.229H29.3814Z" fill="black" stroke="black"/>
<path d="M24.3002 2.47693V1.32925H25.8142V2.47693H24.3002Z" fill="black" stroke="black"/>
<path d="M21.8923 57.229V58.9787H24.2004V57.229H21.8923Z" fill="black" stroke="black"/>
<path d="M28.3044 1.40881V0.499953L26.6538 0.499953V1.40881H28.3044Z" fill="black" stroke="black"/>
<path d="M28.8596 58.8575V60.2431H25.481V58.8575H28.8596Z" fill="black" stroke="black"/>
<path d="M25.2081 1.40881V0.499953L26.8586 0.499953V1.40881H25.2081Z" fill="black" stroke="black"/>
<path d="M22.7442 58.8575V60.2431H25.793V58.8575H22.7442Z" fill="black" stroke="black"/>
<path d="M31.5981 6.0863H31.7578V6.76222H31.5981V6.0863Z" fill="black"/>
<path d="M33.0186 51.7263H33.262V50.6959H33.0186V51.7263Z" fill="black"/>
<path d="M21.9143 6.0863H21.7546V6.76222H21.9143V6.0863Z" fill="black"/>
<path d="M18.2551 51.7263H18.0117V50.6959H18.2551V51.7263Z" fill="black"/>
<path d="M37.479 18.7745H38.2786H39.0246V19.5607V21.8902H38.2913V19.5607H37.479V18.7745Z" fill="black"/>
<path d="M39.0246 19.5607V18.7745H38.2786H37.479V19.5607H38.2913M39.0246 19.5607V21.8902H38.2913V19.5607M39.0246 19.5607H38.2913" stroke="black"/>
<path d="M12.0725 20.8726H11.2729H10.527V21.6587V23.9883H11.2602V21.6587H12.0725V20.8726Z" fill="black"/>
<path d="M10.527 21.6587V20.8726H11.2729H12.0725V21.6587H11.2602M10.527 21.6587V23.9883H11.2602V21.6587M10.527 21.6587H11.2602" stroke="black"/>
<path d="M41.843 56.0331H42.5622V57.4656H43.4075V65.5791H42.701V66.3524H41.843V64.8809H42.689L42.5622 57.4656V58.277H41.843V56.0331Z" fill="black"/>
<path d="M42.5622 57.4656V56.0331H41.843V58.277H42.5622V57.4656ZM42.5622 57.4656H43.4075V65.5791H42.701L42.689 64.8809M42.5622 57.4656L42.689 64.8809M42.689 64.8809H41.843V66.3524H42.701V64.8809" stroke="black"/>
<path d="M10.0652 56.0331H9.19774V57.4588H8.17812V65.5338H9.03034V66.3034H10.0652V64.839H9.04474L9.19774 57.4588V58.2663H10.0652V56.0331Z" fill="black"/>
<path d="M9.19774 57.4588V56.0331H10.0652V58.2663H9.19774V57.4588ZM9.19774 57.4588H8.17812V65.5338H9.03034L9.04474 64.839M9.19774 57.4588L9.04474 64.839M9.04474 64.839H10.0652V66.3034H9.03034V64.839" stroke="black"/>
<path d="M40.2346 65.5985H41.7863V66.9928V67.9056H43.5709V68.8183H45.1923V69.629H43.5501L43.5709 68.8183H41.7863H41.0105V66.9928H40.2346V65.5985Z" fill="black"/>
<path d="M41.7863 66.9928V65.5985H40.2346V66.9928H41.0105M41.7863 66.9928H41.0105M41.7863 66.9928V67.9056M41.0105 66.9928V68.8183H41.7863M41.7863 68.8183V67.9056M41.7863 68.8183H43.5709M41.7863 67.9056H43.5709V68.8183M43.5709 68.8183H45.1923V69.629H43.5501L43.5709 68.8183Z" stroke="black"/>
<path d="M11.3511 65.5985H9.79936V66.9928V67.9056H8.01479V68.8183H6.39339V69.629H8.01479V68.8183H9.79936H10.5752V66.9928H11.3511V65.5985Z" fill="black"/>
<path d="M9.79936 66.9928V65.5985H11.3511V66.9928H10.5752M9.79936 66.9928H10.5752M9.79936 66.9928V67.9056M10.5752 66.9928V68.8183H9.79936M9.79936 68.8183V67.9056M9.79936 68.8183H8.01479M9.79936 67.9056H8.01479V68.8183M8.01479 68.8183V69.629H6.39339V68.8183H8.01479Z" stroke="black"/>
<path d="M30.4709 56.0131H41.8572V57.8899H30.4709V56.0131Z" fill="black" stroke="black"/>
<path d="M10.0652 56.0331H21.8924V57.9099H10.0652V56.0331Z" fill="black" stroke="black"/>
<path d="M36.2436 46.0406L42.5398 56.0633L30.6951 56.0632L36.2436 46.0406Z" fill="#B3201D" stroke="black"/>
<path d="M14.6701 46.0104L20.9663 56.033L9.12158 56.0329L14.6701 46.0104Z" fill="#B3201D" stroke="black"/>
<path d="M14.1306 45.6825L8.21704 57.4687H9.1583L13.6395 56.0773L14.1306 45.6825Z" fill="black" stroke="black"/>
<path d="M37.1136 45.8058L43.3894 57.592H42.3905L37.6347 56.2006L37.1136 45.8058Z" fill="black" stroke="black"/>
<rect x="14.2327" y="41.3171" width="22.8809" height="14.7159" fill="#B22222"/>
<rect x="22.9202" y="56.0632" width="5.83528" height="3.06955" fill="black"/>
<path d="M22.8741 35.8211H22.085V34.1881H22.8741V33.3921H23.6837V35.0046H22.8741V35.8211Z" fill="black"/>
<path d="M22.8741 35.0046V34.1881H22.085V35.8211H22.8741V35.0046ZM22.8741 35.0046H23.6837V33.3921H22.8741V35.0046Z" stroke="black"/>
<path d="M23.6978 32.5098H28.6896V33.4204H29.5431V34.976H28.6352V34.1335H23.6978V32.5098Z" fill="black"/>
<path d="M28.6896 33.4204V34.1335H28.6352M28.6896 33.4204V32.5098H23.6978V34.1335H28.6352M28.6896 33.4204H29.5431V34.976H28.6352V34.1335" stroke="black"/>
<path d="M22.7718 26.6325H20.3189V23.5245H21.1721L21.1721 22.6256H19.5115V21.8791H17.8508V20.2336H20.3189V21.1325H22.0253V21.8791L23.5488 21.8334V22.6256H24.463V21.9095H25.3314V23.5245H24.463H22.7718V26.6325Z" fill="black"/>
<path d="M22.0253 23.5245H22.7718V26.6325H20.3189V23.5245H21.1721M22.0253 23.5245V22.6256M22.0253 23.5245H21.1721M22.0253 23.5245H24.463M22.0253 22.6256H21.1721M22.0253 22.6256V21.8791M21.1721 22.6256H19.5115V21.8791M21.1721 22.6256L21.1721 23.5245M24.463 23.5245H25.3314V21.9095H24.463V22.6256M24.463 23.5245V22.6256M24.463 22.6256H23.5488V21.8334L22.0253 21.8791M22.0253 21.8791V21.1325H20.3189M20.3189 21.1325H19.5115V21.8791M20.3189 21.1325V20.2336H17.8508V21.8791L19.5115 21.8791" stroke="black"/>
<path d="M30.0309 26.6325H32.4838V23.5245H31.6306L31.6306 22.6256H33.2913V21.8791H34.9519V20.2336H32.4838V21.1325H30.7774V21.8791L29.2539 21.8334V22.6256H28.3398V21.9095H27.4714V23.5245H28.3398H30.0309V26.6325Z" fill="black"/>
<path d="M30.7774 23.5245H30.0309V26.6325H32.4838V23.5245H31.6306M30.7774 23.5245V22.6256M30.7774 23.5245H31.6306M30.7774 23.5245H28.3398M30.7774 22.6256H31.6306M30.7774 22.6256V21.8791M31.6306 22.6256H33.2913V21.8791M31.6306 22.6256L31.6306 23.5245M28.3398 23.5245H27.4714V21.9095H28.3398V22.6256M28.3398 23.5245V22.6256M28.3398 22.6256H29.2539V21.8334L30.7774 21.8791M30.7774 21.8791V21.1325H32.4838M32.4838 21.1325H33.2913V21.8791M32.4838 21.1325V20.2336H34.9519V21.8791L33.2913 21.8791" stroke="black"/>
<path d="M19.1404 52.7692V51.6608H20.2488V50.5475V49.4391V48.3258V47.2174V46.1041H19.1404V44.9957H20.2488H21.3621H22.4705H23.5837V46.1041H22.4705H21.3621V47.2174V48.3258H22.4705H23.5837V49.4391H22.4705H21.3621V50.5475V51.6608H22.4705H23.5837V52.7692H22.4705H21.3621H20.2488H19.1404ZM23.5837 51.6608V50.5475V49.4391H24.6921V50.5475V51.6608H23.5837ZM23.5837 48.3258V47.2174V46.1041H24.6921V47.2174V48.3258H23.5837ZM25.8103 52.7692V51.6608H26.9187V50.5475V49.4391V48.3258V47.2174V46.1041H25.8103V44.9957H26.9187H28.032H29.1404H30.2537V46.1041H29.1404H28.032V47.2174V48.3258H29.1404H30.2537V49.4391H29.1404H28.032V50.5475V51.6608H29.1404H30.2537V52.7692H29.1404H28.032H26.9187H25.8103ZM30.2537 51.6608V50.5475V49.4391H31.3621V50.5475V51.6608H30.2537ZM30.2537 48.3258V47.2174V46.1041H31.3621V47.2174V48.3258H30.2537Z" fill="white"/>
</svg>
