<svg width="85" height="28" viewBox="0 0 85 28" fill="none" xmlns="http://www.w3.org/2000/svg">
<path d="M24.4034 12.1993L24.3372 15.1646H29.0289V12.1993H24.4034Z" fill="#57F912"/>
<path d="M84.6827 17.2804L26.2711 17.1713V19.1337H84.6827V17.2804Z" fill="black"/>
<path d="M80.8087 6.63987L30.9399 6.55225V8.12752H80.8087V6.63987Z" fill="black"/>
<path d="M82.7203 8.18372L29.1281 7.64905V17.2607H82.7203V8.18372Z" fill="#57F912"/>
<path d="M80.8088 6.64692V15.2869H82.7204V6.64692H80.8088Z" fill="black"/>
<path d="M29.0286 7.64875V13.0863H30.9402V7.64875H29.0286Z" fill="black"/>
<path d="M82.7481 13.864L82.7203 17.2607H84.6843V13.864H82.7481Z" fill="black"/>
<path d="M27.1932 13.0845L27.1655 15.1082H29.1294V13.0845H27.1932Z" fill="black"/>
<path d="M26.7783 10.1094L26.7446 12.1331H29.1299V10.1094H26.7783Z" fill="black"/>
<path d="M26.7723 17.1883L26.7446 15.1646H28.7085V17.1883H26.7723Z" fill="black"/>
<path d="M24.8099 10.1094L24.7822 12.1331H26.7461V10.1094H24.8099Z" fill="black"/>
<path d="M24.8099 17.1883L24.7822 15.1646H26.7461V17.1883H24.8099Z" fill="black"/>
<path d="M24.8099 8.08714L24.7822 10.1108H26.7461V8.08714H24.8099Z" fill="black"/>
<path d="M24.8099 19.2105L24.7822 17.1868H26.7461V19.2105H24.8099Z" fill="black"/>
<path d="M22.8475 8.08714L22.8198 10.1108H24.7837V8.08714H22.8475Z" fill="black"/>
<path d="M22.8475 19.2105L22.8198 17.1868H24.7837V19.2105H22.8475Z" fill="black"/>
<path d="M7.09701 7.82639L7.06519 10.1108H9.32046V7.82639H7.09701Z" fill="black"/>
<path d="M7.09701 19.4712L7.06519 17.1868H9.32046V19.4712H7.09701Z" fill="black"/>
<path d="M7.38818 9.78178V12.1331H16.3443V9.78178H7.38818Z" fill="black"/>
<path d="M4.83374 2.02167L4.83374 10.1108H18.8958V2.02167H4.83374Z" fill="#57F912"/>
<path d="M3.85254 20.8496L3.85254 25.2756H19.1418V20.8496H3.85254Z" fill="#57F912"/>
<path d="M6.18262 17.5154V21.8326H21.4719V17.5154H6.18262Z" fill="#57F912"/>
<path d="M11.7703 6.06554L11.7703 21.2311H24.783V6.06554H11.7703Z" fill="#57F912"/>
<path d="M7.38818 17.5158V15.1646H16.3443V17.5158H7.38818Z" fill="black"/>
<path d="M11.7703 11.927V13.9641H18.3107V11.927H11.7703Z" fill="black"/>
<path d="M11.7703 15.3703V13.3331H18.3107V15.3703H11.7703Z" fill="black"/>
<path d="M22.8475 6.0648L22.8198 8.0885H24.7837V6.0648H22.8475Z" fill="black"/>
<path d="M22.8475 21.2324L22.8198 19.2087H24.7837V21.2324H22.8475Z" fill="black"/>
<path d="M20.885 6.0648L20.8573 8.0885H22.8212V6.0648H20.885Z" fill="black"/>
<path d="M20.897 21.2324L20.8573 19.2087H23.6705V21.2324H20.897Z" fill="black"/>
<path d="M4.77864 7.07527L4.74512 10.1108H7.12021V7.07527H4.77864Z" fill="black"/>
<path d="M5.13125 20.2223L5.10278 17.1868H7.12003V20.2223H5.13125Z" fill="black"/>
<path d="M2.93128 5.87727L2.87134 7.40662H7.11872V5.87727H2.93128Z" fill="black"/>
<path d="M2.93128 21.4207L2.87134 19.8914H7.11872V21.4207H2.93128Z" fill="black"/>
<path d="M20.885 4.04283L20.8573 6.06653H22.8212V4.04283H20.885Z" fill="black"/>
<path d="M20.4089 23.2548L20.3744 21.2311H22.8216V23.2548H20.4089Z" fill="black"/>
<path d="M18.9227 4.04283L18.895 6.06653H20.8589V4.04283H18.9227Z" fill="black"/>
<path d="M18.9227 23.2548L18.895 21.2311H20.8589V23.2548H18.9227Z" fill="black"/>
<path d="M2.89905 3.85349L2.87134 5.8772H4.83526V3.85349H2.89905Z" fill="black"/>
<path d="M2.89905 23.4439L2.87134 21.4202H4.83526V23.4439H2.89905Z" fill="black"/>
<path d="M18.9227 2.02049L18.895 4.04419H20.8589V2.02049H18.9227Z" fill="black"/>
<path d="M18.9227 25.2768L18.895 23.2531H20.8589V25.2768H18.9227Z" fill="black"/>
<path d="M0 0.000177145L0 2.02234L16.3436 2.02234V0.000177145L0 0.000177145Z" fill="black"/>
<path d="M0 27.2978L0 25.2756H16.3436V27.2978H0Z" fill="black"/>
<path d="M13.8641 2.0219L13.7921 4.04419H18.8953V2.0219L13.8641 2.0219Z" fill="black"/>
<path d="M13.8668 25.2753L13.7921 23.2531H19.0872V25.2753H13.8668Z" fill="black"/>
<path d="M0.0682239 2.02202L0 4.04431H4.83416V2.02202L0.0682239 2.02202Z" fill="black"/>
<path d="M0.0682239 25.2753L0 23.2531H4.83416V25.2753H0.0682239Z" fill="black"/>
<path d="M27.1932 15.1068L27.1655 17.2607H29.1294V15.1068H27.1932Z" fill="#57F912"/>
</svg>
