<svg width="50" height="73" viewBox="0 0 50 73" fill="none" xmlns="http://www.w3.org/2000/svg">
<rect x="32.9059" y="66.3524" width="8.07737" height="5.40884" fill="#57F912"/>
<rect x="30.5637" y="19.3666" width="8.07737" height="21.6946" fill="#57F912"/>
<rect x="38.2517" y="30.925" width="9.81541" height="8.61327" fill="#57F912"/>
<rect x="30.6792" y="29.9323" width="15.9081" height="8.61327" fill="#57F912"/>
<rect x="23.395" y="21.8901" width="16.3884" height="8.61327" fill="#57F912"/>
<rect x="37.8096" y="26.8136" width="3.70685" height="8.61327" fill="#57F912"/>
<rect x="14.1306" y="18.1238" width="1.83944" height="25.3738" fill="#57F912"/>
<rect width="3.8689" height="23.0463" transform="matrix(-1 0 0 1 15.9962 18.8752)" fill="#57F912"/>
<rect width="3.49699" height="22.5818" transform="matrix(-1 0 0 1 14.2325 18.2064)" fill="#57F912"/>
<rect width="3.68475" height="16.5326" transform="matrix(0 -1 -1 0 35.1097 14.6849)" fill="#57F912"/>
<rect width="3.68475" height="11.5608" transform="matrix(0 -1 -1 0 32.5389 11.0549)" fill="#57F912"/>
<rect width="3.68475" height="13.2183" transform="matrix(0 -1 -1 0 33.3953 13.875)" fill="#57F912"/>
<rect width="3.68475" height="6.88139" transform="matrix(0 -1 -1 0 30.3417 7.39124)" fill="#57F912"/>
<rect width="3.72011" height="6.66993" transform="matrix(0 -1 -1 0 28.5842 9.21252)" fill="#57F912"/>
<rect width="3.72011" height="6.66993" transform="matrix(0 -1 -1 0 28.3044 10.1901)" fill="#57F912"/>
<rect width="3.72011" height="4.91224" transform="matrix(0 -1 -1 0 29.2124 5.04944)" fill="#57F912"/>
<rect width="3.68475" height="6.88139" transform="matrix(0 -1 -1 0 31.438 9.21252)" fill="#57F912"/>
<rect width="3.49699" height="14.1914" transform="matrix(-1 0 0 1 12.6185 26.1968)" fill="#57F912"/>
<rect width="3.49699" height="4.93919" transform="matrix(-1 0 0 1 11.5851 28.8127)" fill="#57F912"/>
<rect width="5.54681" height="8.7642" transform="matrix(-1 0 0 1 7.16016 33.0206)" fill="#57F912"/>
<rect width="5.54681" height="5.46283" transform="matrix(-1 0 0 1 6.67944 34.4857)" fill="#57F912"/>
<rect width="5.54681" height="5.46283" transform="matrix(-1 0 0 1 8.21704 32.2893)" fill="#57F912"/>
<rect width="5.54681" height="5.46283" transform="matrix(-1 0 0 1 10.3636 34.894)" fill="#57F912"/>
<rect width="3.09058" height="1.07488" transform="matrix(-1 0 0 1 8.01562 40.2423)" fill="#57F912"/>
<rect x="15.4971" y="19.1112" width="21.6164" height="39.7035" fill="#57F912"/>
<rect x="33.1403" y="57.8898" width="9.39952" height="8.46262" fill="#F6E2B9"/>
<rect x="9.12158" y="57.8302" width="10.312" height="8.46262" fill="#F6E2B9"/>
<rect x="31.2509" y="57.7346" width="7.31254" height="3.70469" fill="#F6E2B9"/>
<rect x="29.3813" y="57.6981" width="7.31254" height="2.86957" fill="#F6E2B9"/>
<rect x="14.6836" y="57.5919" width="7.31254" height="2.86957" fill="#F6E2B9"/>
<rect x="10.6024" y="67.0778" width="8.07737" height="4.46974" fill="#57F912"/>
<rect width="8.07737" height="2.70442" transform="matrix(1 0 0 -1 6.51526 71.5475)" fill="#57F912"/>
<rect x="37.115" y="68.8431" width="8.07737" height="2.35176" fill="#57F912"/>
<path d="M44.4606 70.3983V69.6479H46.1206V70.3983V72.1208H45.319H43.4431H32.1714V71.2595V68.8197H32.8825L32.8435 71.2595H41.0542V70.4576H41.7939V71.2595H43.4431H43.5454V70.3983H44.3185V71.2595H45.3048L45.2906 70.3983H44.4606Z" fill="black"/>
<path d="M46.1206 70.3983V69.6479H44.4606V70.3983H45.2906M46.1206 70.3983H45.2906M46.1206 70.3983V72.1208H45.319M45.319 72.1208L45.3048 71.2595M45.319 72.1208H43.4431M45.2906 70.3983L45.3048 71.2595M45.3048 71.2595H44.3185M43.4431 71.2595V72.1208M43.4431 71.2595H43.5454M43.4431 71.2595H41.7939M43.4431 72.1208H32.1714V71.2595M44.3185 71.2595V70.3983H43.5454V71.2595M44.3185 71.2595H43.5454M32.1714 71.2595V68.8197H32.8825L32.8435 71.2595M32.1714 71.2595H32.8435M41.7939 71.2595V70.4576H41.0542V71.2595M41.7939 71.2595H41.0542M41.0542 71.2595H32.8435" stroke="black"/>
<path d="M7.12505 70.3983V69.6479H5.46512V70.3983V72.1208H6.26666H8.1426H19.4143V71.2595V68.8197H18.7032L18.7422 71.2595H10.5315V70.4576H9.7918V71.2595H8.1426H8.04028V70.3983H7.26716V71.2595H6.28087L6.29509 70.3983H7.12505Z" fill="black"/>
<path d="M5.46512 70.3983V69.6479H7.12505V70.3983H6.29509M5.46512 70.3983H6.29509M5.46512 70.3983V72.1208H6.26666M6.26666 72.1208L6.28087 71.2595M6.26666 72.1208H8.1426M6.29509 70.3983L6.28087 71.2595M6.28087 71.2595H7.26716M8.1426 71.2595V72.1208M8.1426 71.2595H8.04028M8.1426 71.2595H9.7918M8.1426 72.1208H19.4143V71.2595M7.26716 71.2595V70.3983H8.04028V71.2595M7.26716 71.2595H8.04028M19.4143 71.2595V68.8197H18.7032L18.7422 71.2595M19.4143 71.2595H18.7422M9.7918 71.2595V70.4576H10.5315V71.2595M9.7918 71.2595H10.5315M10.5315 71.2595H18.7422" stroke="black"/>
<path d="M33.6863 68.8431H32.9059V65.4562H33.6863V66.3614V68.8431Z" fill="black" stroke="black"/>
<path d="M17.8994 68.8431H18.6798V65.4562H17.8994V66.3614V68.8431Z" fill="black" stroke="black"/>
<path d="M40.2562 66.2928H33.73V67.0777H40.2562V66.2928Z" fill="black" stroke="black"/>
<path d="M11.3295 66.2928H17.8557V67.0777H11.3295V66.2928Z" fill="black" stroke="black"/>
<path d="M32.8816 66.3524H32.0924L32.0924 62.2519H31.2577V61.4581H30.4503V60.6629L28.8741 60.6643V59.8678H29.6622L27.9882 59.8141C27.9847 59.5364 27.9797 58.981 27.9882 58.981H29.6622V59.8678H30.4503H31.1626L31.2577 61.4581V60.6643H32.0924L32.0924 61.5896H32.8816H33.6437V62.2519H32.8816V66.3524Z" fill="black"/>
<path d="M35.1406 62.2519H33.7707V63.0774H35.1406V62.2519Z" fill="black"/>
<path d="M32.8816 61.5896H32.0924V62.2519M32.8816 61.5896V62.2519M32.8816 61.5896H33.6437V62.2519H32.8816M32.8816 62.2519V66.3524H32.0924L32.0924 62.2519M32.0924 62.2519L32.0924 60.6643H31.2577V61.4581M32.0924 62.2519H31.2577V61.4581M31.2577 61.4581H30.4503V60.6629M31.2577 61.4581L31.1626 59.8678H30.4503M30.4503 59.8678V60.6629M30.4503 59.8678H29.6622M30.4503 60.6629L28.8741 60.6643V59.8678H29.6622M29.6622 59.8678V58.981C29.1077 58.981 27.9966 58.981 27.9882 58.981C27.9797 58.981 27.9847 59.5364 27.9882 59.8141L29.6622 59.8678ZM33.7707 62.2519H35.1406V63.0774H33.7707V62.2519Z" stroke="black"/>
<path d="M18.7041 66.3524H19.4933L19.4933 62.2519H20.328V61.4581H21.1354V60.6629L22.7116 60.6643V59.8678H21.9235L23.5975 59.8141C23.601 59.5364 23.606 58.981 23.5975 58.981H21.9235V59.8678H21.1354H20.4231L20.328 61.4581V60.6643H19.4933L19.4933 61.5896H18.7041H17.942V62.2519H18.7041V66.3524Z" fill="black"/>
<path d="M16.4451 62.2519H17.815V63.0774H16.4451V62.2519Z" fill="black"/>
<path d="M18.7041 61.5896H19.4933V62.2519M18.7041 61.5896V62.2519M18.7041 61.5896H17.942V62.2519H18.7041M18.7041 62.2519V66.3524H19.4933L19.4933 62.2519M19.4933 62.2519L19.4933 60.6643H20.328V61.4581M19.4933 62.2519H20.328V61.4581M20.328 61.4581H21.1354V60.6629M20.328 61.4581L20.4231 59.8678H21.1354M21.1354 59.8678V60.6629M21.1354 59.8678H21.9235M21.1354 60.6629L22.7116 60.6643V59.8678H21.9235M21.9235 59.8678V58.981C22.478 58.981 23.5891 58.981 23.5975 58.981C23.606 58.981 23.601 59.5364 23.5975 59.8141L21.9235 59.8678ZM17.815 62.2519H16.4451V63.0774H17.815V62.2519Z" stroke="black"/>
<path d="M0.539465 33.8007H1.40149" stroke="black"/>
<path d="M47.449 38.9825V38.29H49.0513V38.9825H48.0925V39.7246H47.3483V40.5802H46.6653H45.5088V41.3994H43.3014V40.5802H41.6592V39.834H46.6653V39.7246V38.9825H47.449Z" fill="black"/>
<path d="M47.449 38.9825V38.29H49.0513V38.9825H48.0925M47.449 38.9825H48.0925M47.449 38.9825H46.6653V39.7246M48.0925 38.9825V39.7246H47.3483M46.6653 39.7246H47.3483M46.6653 39.7246V39.834M47.3483 39.7246V40.5802H46.6653M46.6653 40.5802V39.834M46.6653 40.5802H45.5088M46.6653 39.834H41.6592V40.5802H43.3014M45.5088 40.5802V41.3994H43.3014V40.5802M45.5088 40.5802H43.3014" stroke="black"/>
<path d="M2.10229 41.0807V40.3882H0.500003V41.0807H1.4588V41.8228H2.20293V42.6784H2.88595H4.04251V43.4975H6.24989V42.6784H7.89209V41.9321H2.88595V41.8228V41.0807H2.10229Z" fill="black"/>
<path d="M2.10229 41.0807V40.3882H0.500003V41.0807H1.4588M2.10229 41.0807H1.4588M2.10229 41.0807H2.88595V41.8228M1.4588 41.0807V41.8228H2.20293M2.88595 41.8228H2.20293M2.88595 41.8228V41.9321M2.20293 41.8228V42.6784H2.88595M2.88595 42.6784V41.9321M2.88595 42.6784H4.04251M2.88595 41.9321H7.89209V42.6784H6.24989M4.04251 42.6784V43.4975H6.24989V42.6784M4.04251 42.6784H6.24989" stroke="black"/>
<path d="M43.1697 39.0299V39.8234H40.7891V39.0299V38.3125H39.2075V37.5951V37.4123H38.3336V33.4031H39.1159L39.1312 32.5897H39.92V34.0716H39.1312L39.2075 37.4123V36.6282H39.92V37.5951H40.7891H41.5867V39.0299H43.1697Z" fill="black"/>
<path d="M40.7891 39.0299V39.8234H43.1697V39.0299H41.5867M40.7891 39.0299H41.5867M40.7891 39.0299V38.3125M41.5867 39.0299V37.5951H40.7891M40.7891 37.5951V38.3125M40.7891 37.5951H39.92M40.7891 38.3125H39.2075V37.5951M39.2075 37.5951H39.92M39.2075 37.5951V37.4123M39.92 37.5951V36.6282H39.2075V37.4123M39.2075 37.4123H38.3336V33.4031H39.1159M39.2075 37.4123L39.1312 34.0716M39.1159 33.4031L39.1312 34.0716M39.1159 33.4031L39.1312 32.5897H39.92V34.0716H39.1312" stroke="black"/>
<path d="M6.38166 41.128V41.9216H8.7623V41.128V40.4106H10.3439V39.6933V39.5104H11.2178V35.5012H10.4355L10.4202 34.6879H9.63139V36.1698H10.4202L10.3439 39.5104V38.7263H9.63139V39.6933H8.7623H7.96465V41.128H6.38166Z" fill="black"/>
<path d="M8.7623 41.128V41.9216H6.38166V41.128H7.96465M8.7623 41.128H7.96465M8.7623 41.128V40.4106M7.96465 41.128V39.6933H8.7623M8.7623 39.6933V40.4106M8.7623 39.6933H9.63139M8.7623 40.4106H10.3439V39.6933M10.3439 39.6933H9.63139M10.3439 39.6933V39.5104M9.63139 39.6933V38.7263H10.3439V39.5104M10.3439 39.5104H11.2178V35.5012H10.4355M10.3439 39.5104L10.4202 36.1698M10.4355 35.5012L10.4202 36.1698M10.4355 35.5012L10.4202 34.6879H9.63139V36.1698H10.4202" stroke="black"/>
<path d="M39.9219 33.2704V32.5897H41.5376V33.2704V34.127H42.3645V33.2704H42.4383V33.2235V32.8359L43.2536 32.5098H44.0688V32.8359V33.2235H42.4383V33.2704H43.3613V34.127V34.9835V35.8193H44.0688V36.655H45.8194V35.7066H44.8667V34.9103H46.5873V36.655V37.3988L44.0688 37.4882V38.9631H43.3613V36.655H42.3645V34.9835H41.5376H40.7298V33.2704H39.9219Z" fill="black"/>
<path d="M41.5376 33.2704V32.5897H39.9219V33.2704H40.7298M41.5376 33.2704H40.7298M41.5376 33.2704V34.127M40.7298 33.2704V34.9835H41.5376M41.5376 34.9835V34.127M41.5376 34.9835H42.3645M41.5376 34.127H42.3645M43.3613 34.127V34.9835M43.3613 34.127H42.3645M43.3613 34.127V33.2704H42.4383M43.3613 34.9835H42.3645M43.3613 34.9835V35.8193M42.3645 34.127V33.2704H42.4383M42.4383 33.2704V33.2235M42.4383 32.8359V33.2235M42.4383 32.8359H43.2536M42.4383 32.8359L43.2536 32.5098M44.0688 32.8359V33.2235H42.4383M44.0688 32.8359H43.2536M44.0688 32.8359V32.5098H43.2536M43.2536 32.8359V32.5098M42.3645 34.9835V36.655H43.3613V35.8193M43.3613 35.8193H44.0688V36.655M43.3613 35.8193V38.9631H44.0688V37.4882M44.0688 36.655V37.4882M44.0688 36.655H45.8194M46.5873 36.655V37.3988L44.0688 37.4882M46.5873 36.655V34.9103H44.8667V35.7066H45.8194V36.655M46.5873 36.655H45.8194" stroke="black"/>
<path d="M9.62939 35.3683V34.6876H8.01362V35.3683V36.2249H7.18676V35.3683H7.11292V35.3214V34.9338L6.29768 34.6077H5.48244V34.9338V35.3214H7.11292V35.3683H6.19001V36.2249V37.0814V37.9172H5.48244V38.7529H3.73185V37.8045H4.68461V37.0082H2.96396V38.7529V39.4967L5.48244 39.5861V41.061H6.19001V38.7529H7.18676V37.0814H8.01362H8.82151V35.3683H9.62939Z" fill="black"/>
<path d="M8.01362 35.3683V34.6876H9.62939V35.3683H8.82151M8.01362 35.3683H8.82151M8.01362 35.3683V36.2249M8.82151 35.3683V37.0814H8.01362M8.01362 37.0814V36.2249M8.01362 37.0814H7.18676M8.01362 36.2249H7.18676M6.19001 36.2249V37.0814M6.19001 36.2249H7.18676M6.19001 36.2249V35.3683H7.11292M6.19001 37.0814H7.18676M6.19001 37.0814V37.9172M7.18676 36.2249V35.3683H7.11292M7.11292 35.3683V35.3214M7.11292 34.9338V35.3214M7.11292 34.9338H6.29768M7.11292 34.9338L6.29768 34.6077M5.48244 34.9338V35.3214H7.11292M5.48244 34.9338H6.29768M5.48244 34.9338V34.6077H6.29768M6.29768 34.9338V34.6077M7.18676 37.0814V38.7529H6.19001V37.9172M6.19001 37.9172H5.48244V38.7529M6.19001 37.9172V41.061H5.48244V39.5861M5.48244 38.7529V39.5861M5.48244 38.7529H3.73185M2.96396 38.7529V39.4967L5.48244 39.5861M2.96396 38.7529V37.0082H4.68461V37.8045H3.73185V38.7529M2.96396 38.7529H3.73185" stroke="black"/>
<path d="M39.9603 31.6682V32.5836H41.5316H41.6826V31.6682H39.9603Z" fill="black" stroke="black"/>
<path d="M9.59094 33.7661V34.6815H8.01963H7.86863V33.7661H9.59094Z" fill="black" stroke="black"/>
<path d="M40.7908 30.1912V31.6539H41.6637V30.9697H41.5363V30.1912H40.7908Z" fill="black" stroke="black"/>
<path d="M8.7605 32.2893V33.7521H7.88755V33.0679H8.01495V32.2893H8.7605Z" fill="black" stroke="black"/>
<path d="M39.1415 21.8901H39.9347V23.577H40.7088V25.7799H41.4639L41.5164 28.3603H40.7088V26.8646H39.7961V24.2938H39.0793V21.8901H39.1415Z" fill="black"/>
<path d="M39.1415 21.8901H39.9347M39.9347 21.8901H39.0793V24.2938H39.9347V23.577M39.9347 21.8901V23.577M39.9347 23.577H40.7088M40.7088 23.577H39.7961V26.8646H40.7088M40.7088 23.577V25.7799M40.7088 26.8646V25.7799M40.7088 26.8646V28.3603H41.5164L41.4639 25.7799H40.7088" stroke="black"/>
<path d="M10.4098 23.9883H9.61655V25.6751H8.84242V27.878H8.0874L8.03484 30.4585H8.84242V28.9628H9.75513V26.3919H10.4719V23.9883H10.4098Z" fill="black"/>
<path d="M10.4098 23.9883H9.61655M9.61655 23.9883H10.4719V26.3919H9.61655V25.6751M9.61655 23.9883V25.6751M9.61655 25.6751H8.84242M8.84242 25.6751H9.75513V28.9628H8.84242M8.84242 25.6751V27.878M8.84242 28.9628V27.878M8.84242 28.9628V30.4585H8.03484L8.0874 27.878H8.84242" stroke="black"/>
<path d="M41.5356 28.3604H42.3245V29.2592H46.5197V30.0582L45.8253 30.0659H47.4367V30.8311H48.1387V31.6891H49.0174V38.2588H47.4613V37.5366H48.1491L48.1387 32.5843H47.4367V31.6891H46.5685V30.8311H45.8253V30.0659L42.3245 30.1042V30.9492H41.5356V28.3604Z" fill="black"/>
<path d="M42.3245 29.2592V28.3604H41.5356V30.9492H42.3245V30.1042M42.3245 29.2592H46.5197V30.0582L45.8253 30.0659M42.3245 29.2592V30.1042M42.3245 30.1042L45.8253 30.0659M45.8253 30.0659V30.8311H46.5685M45.8253 30.0659H47.4367V30.8311H46.5685M46.5685 30.8311V31.6891H47.4367M46.5685 30.8311H48.1387V31.6891M48.1387 31.6891H47.4367M48.1387 31.6891V32.5843M48.1387 31.6891H49.0174V38.2588H47.4613V37.5366H48.1491L48.1387 32.5843M47.4367 31.6891V32.5843H48.1387" stroke="black"/>
<path d="M8.01562 30.4585H7.22673V31.3574H3.03154V32.1564L3.72599 32.164H2.11461V32.9292H1.41254V33.7872H0.533829V40.3569H2.09V39.6347H1.40219L1.41254 34.6825H2.11461V33.7872H2.98277V32.9292H3.72599V32.164L7.22673 32.2023V33.0473H8.01562V30.4585Z" fill="black"/>
<path d="M7.22673 31.3574V30.4585H8.01562V33.0473H7.22673V32.2023M7.22673 31.3574H3.03154V32.1564L3.72599 32.164M7.22673 31.3574V32.2023M7.22673 32.2023L3.72599 32.164M3.72599 32.164V32.9292H2.98277M3.72599 32.164H2.11461V32.9292H2.98277M2.98277 32.9292V33.7872H2.11461M2.98277 32.9292H1.41254V33.7872M1.41254 33.7872H2.11461M1.41254 33.7872V34.6825M1.41254 33.7872H0.533829V40.3569H2.09V39.6347H1.40219L1.41254 34.6825M2.11461 33.7872V34.6825H1.41254" stroke="black"/>
<path d="M13.6641 16.106L13.6379 17.2775H15.4914V16.106H13.6641Z" fill="#D22D17"/>
<path d="M37.4789 18.1134L14.4021 18.0703V18.8456H37.4789V18.1134Z" fill="black"/>
<path d="M35.9484 13.9096L16.2466 13.875V14.4973H35.9484V13.9096Z" fill="black"/>
<path d="M36.7036 14.5196L15.5308 14.3083V18.1057H36.7036V14.5196Z" fill="#D22D17"/>
<path d="M35.9485 13.9126V17.3258H36.7037V13.9126H35.9485Z" fill="black"/>
<path d="M15.4915 14.3083V16.4564H16.2466V14.3083H15.4915Z" fill="black"/>
<path d="M36.7146 16.7637L36.7036 18.1056H37.4795V16.7637H36.7146Z" fill="black"/>
<path d="M14.7664 16.4558L14.7555 17.2552H15.5313V16.4558H14.7664Z" fill="black"/>
<path d="M14.6024 15.2804L14.5891 16.0798H15.5314V15.2804H14.6024Z" fill="black"/>
<path d="M14.6001 18.0769L14.5891 17.2775H15.365V18.0769H14.6001Z" fill="black"/>
<path d="M13.8248 15.2804L13.8138 16.0798H14.5897V15.2804H13.8248Z" fill="black"/>
<path d="M13.8248 18.0769L13.8138 17.2775H14.5897V18.0769H13.8248Z" fill="black"/>
<path d="M13.8248 14.4814L13.8138 15.2809H14.5897V14.4814H13.8248Z" fill="black"/>
<path d="M13.8248 18.8759L13.8138 18.0764H14.5897V18.8759H13.8248Z" fill="black"/>
<path d="M13.0495 14.4814L13.0386 15.2809H13.8144V14.4814H13.0495Z" fill="black"/>
<path d="M13.0495 18.8759L13.0386 18.0764H13.8144V18.8759H13.0495Z" fill="black"/>
<path d="M6.8269 14.3784L6.81433 15.2809H7.70527V14.3784H6.8269Z" fill="black"/>
<path d="M6.8269 18.9789L6.81433 18.0764H7.70527V18.9789H6.8269Z" fill="black"/>
<path d="M6.94189 15.151V16.0798H10.48V15.151H6.94189Z" fill="black"/>
<path d="M5.93274 12.0853V15.2809H11.4879V12.0853H5.93274Z" fill="#D22D17"/>
<path d="M5.54517 19.5236V21.2721H11.5852V19.5236H5.54517Z" fill="#D22D17"/>
<path d="M6.4657 18.2063V19.9119H12.5057V18.2063H6.4657Z" fill="#D22D17"/>
<path d="M8.67322 13.6831V19.6742H13.8139V13.6831H8.67322Z" fill="#D22D17"/>
<path d="M6.94189 18.2063V17.2775H10.48V18.2063H6.94189Z" fill="black"/>
<path d="M8.67322 15.9985V16.8032H11.257V15.9985H8.67322Z" fill="black"/>
<path d="M8.67322 17.3587V16.554H11.257V17.3587H8.67322Z" fill="black"/>
<path d="M13.0495 13.6825L13.0386 14.4819H13.8144V13.6825H13.0495Z" fill="black"/>
<path d="M13.0495 19.6747L13.0386 18.8752H13.8144V19.6747H13.0495Z" fill="black"/>
<path d="M12.2741 13.6825L12.2632 14.4819H13.039V13.6825H12.2741Z" fill="black"/>
<path d="M12.2789 19.6747L12.2632 18.8752H13.3745V19.6747H12.2789Z" fill="black"/>
<path d="M5.91095 14.0817L5.89771 15.2809H6.83598V14.0817H5.91095Z" fill="black"/>
<path d="M6.05031 19.2756L6.03906 18.0764H6.83597V19.2756H6.05031Z" fill="black"/>
<path d="M5.18115 13.6084L5.15747 14.2125H6.83539V13.6084H5.18115Z" fill="black"/>
<path d="M5.18115 19.7491L5.15747 19.1449H6.83539V19.7491H5.18115Z" fill="black"/>
<path d="M12.2741 12.8836L12.2632 13.6831H13.039V12.8836H12.2741Z" fill="black"/>
<path d="M12.086 20.4737L12.0724 19.6742H13.0392V20.4737H12.086Z" fill="black"/>
<path d="M11.4989 12.8836L11.4879 13.6831H12.2638V12.8836H11.4989Z" fill="black"/>
<path d="M11.4989 20.4737L11.4879 19.6742H12.2638V20.4737H11.4989Z" fill="black"/>
<path d="M5.16842 12.8088L5.15747 13.6083H5.93331V12.8088H5.16842Z" fill="black"/>
<path d="M5.16842 20.5484L5.15747 19.7489H5.93331V20.5484H5.16842Z" fill="black"/>
<path d="M11.4989 12.0847L11.4879 12.8842H12.2638V12.0847H11.4989Z" fill="black"/>
<path d="M11.4989 21.2725L11.4879 20.473H12.2638V21.2725H11.4989Z" fill="black"/>
<path d="M4.02307 11.2864V12.0853H10.48V11.2864H4.02307Z" fill="black"/>
<path d="M4.02307 22.071V21.2721H10.48V22.071H4.02307Z" fill="black"/>
<path d="M9.50038 12.0853L9.47192 12.8842H11.4879V12.0853H9.50038Z" fill="black"/>
<path d="M9.50145 21.2719L9.47192 20.473H11.5637V21.2719H9.50145Z" fill="black"/>
<path d="M4.05002 12.0853L4.02307 12.8842H5.93279V12.0853H4.05002Z" fill="black"/>
<path d="M4.05002 21.2719L4.02307 20.473H5.93279V21.2719H4.05002Z" fill="black"/>
<path d="M14.7664 17.2547L14.7555 18.1056H15.5313V17.2547H14.7664Z" fill="#D22D17"/>
<path d="M36.6705 13.8939H35.1028V13.1301H34.2667V12.3744V11.5784L33.4386 11.5945V10.7825V10.2824H33.3283H32.5343V7.7522H33.3283V9.4077H33.4386H34.2667V10.7825H35.0767V12.3744H35.8867V13.1301H36.6705V13.8939Z" fill="black"/>
<path d="M35.1028 13.1301V13.8939H36.6705V13.1301H35.8867M35.1028 13.1301H35.8867M35.1028 13.1301H34.2667V12.3744M35.8867 13.1301V12.3744H35.0767M34.2667 12.3744H35.0767M34.2667 12.3744V11.5784M35.0767 12.3744V10.7825H34.2667V11.5784M34.2667 11.5784L33.4386 11.5945V10.7825V10.2824M34.2667 11.5784V9.4077H33.4386M33.4386 9.4077V10.2824M33.4386 9.4077H33.3283M33.4386 10.2824H33.3283M33.3283 10.2824H32.5343V7.7522H33.3283V9.4077M33.3283 10.2824V9.4077" stroke="black"/>
<path d="M40.7588 39.9344H38.3687V41.0988H37.094V42.2509V43.4644L35.8315 43.4398V44.6778V45.4401H35.6633H34.4529V49.2976H35.6633L35.5781 47.3971H35.7364H36.3382H37.1775L37.1197 44.6778H38.3288V42.2509H39.5637V41.0988H40.7588V39.9344Z" fill="black"/>
<path d="M38.3687 41.0988V39.9344H40.7588V41.0988H39.5637M38.3687 41.0988H39.5637M38.3687 41.0988H37.094V42.2509M39.5637 41.0988V42.2509H38.3288M37.094 42.2509H38.3288M37.094 42.2509V43.4644M38.3288 42.2509V44.6778H37.094V43.4644M37.094 43.4644L35.8315 43.4398V44.6778V45.4401M37.094 43.4644L37.1775 47.3971H36.3382H35.7364M35.7364 47.3971L35.8315 45.4401M35.7364 47.3971H35.5781M35.8315 45.4401H35.6633M35.6633 45.4401H34.4529V49.2976H35.6633L35.5781 47.3971M35.6633 45.4401L35.5781 47.3971" stroke="black"/>
<path d="M16.8419 13.8939H18.4096V13.1301H19.2458V12.3744V11.5784L20.0739 11.5945V10.7825V10.2824H20.1842H20.9781V7.7522H20.1842V9.4077H20.0739H19.2458V10.7825H18.4358V12.3744H17.6258V13.1301H16.8419V13.8939Z" fill="black"/>
<path d="M18.4096 13.1301V13.8939H16.8419V13.1301H17.6258M18.4096 13.1301H17.6258M18.4096 13.1301H19.2458V12.3744M17.6258 13.1301V12.3744H18.4358M19.2458 12.3744H18.4358M19.2458 12.3744V11.5784M18.4358 12.3744V10.7825H19.2458V11.5784M19.2458 11.5784L20.0739 11.5945V10.7825V10.2824M19.2458 11.5784V9.4077H20.0739M20.0739 9.4077V10.2824M20.0739 9.4077H20.1842M20.0739 10.2824H20.1842M20.1842 10.2824H20.9781V7.7522H20.1842V9.4077M20.1842 10.2824V9.4077" stroke="black"/>
<path d="M10.3637 40.4835H12.8373V41.043H14.1797V42.1951V43.4086L15.4422 43.3841V44.622V45.3843H15.6104H16.8208V49.2418H15.6104V47.544H14.077L14.1496 44.622H12.9448V42.1951H11.71L11.6422 41.043H10.3637V40.4835Z" fill="black"/>
<path d="M12.8373 41.043V40.4835H10.3637V41.043H11.6422M12.8373 41.043H11.6422M12.8373 41.043H14.1797V42.1951M11.6422 41.043L11.71 42.1951H12.9448M14.1797 42.1951H12.9448M14.1797 42.1951V43.4086M12.9448 42.1951V44.622H14.1797V43.4086M14.1797 43.4086L15.4422 43.3841V44.622V45.3843M14.1797 43.4086L14.077 47.544H15.6104M15.6104 47.544L15.4422 45.3843M15.6104 47.544V46.7179M15.4422 45.3843H15.6104M15.6104 45.3843H16.8208V49.2418H15.6104V46.7179M15.6104 45.3843V46.7179" stroke="black"/>
<path d="M31.766 8.62709H32.539V6.11328H31.766V8.62709Z" fill="black" stroke="black"/>
<path d="M33.2744 47.853H34.4529V51.6854H33.2744V47.853Z" fill="black" stroke="black"/>
<path d="M21.7465 8.62709H20.9735V6.11328H21.7465V8.62709Z" fill="black" stroke="black"/>
<path d="M17.9993 47.853H16.8208V51.6854H17.9993V47.853Z" fill="black" stroke="black"/>
<path d="M30.8252 6.76174H31.5982V4.61389H30.8252V6.76174Z" fill="black" stroke="black"/>
<path d="M31.8401 50.6967H33.0186V53.9712H31.8401V50.6967Z" fill="black" stroke="black"/>
<path d="M22.6873 6.76174H21.9143V4.61389H22.6873V6.76174Z" fill="black" stroke="black"/>
<path d="M19.4336 50.6967H18.2551V53.9712H19.4336V50.6967Z" fill="black" stroke="black"/>
<path d="M30.0521 5.54901H30.8251V3.26147H30.0521V5.54901Z" fill="black" stroke="black"/>
<path d="M30.6616 52.5456H31.8401V56.0331H30.6616V52.5456Z" fill="black" stroke="black"/>
<path d="M23.4603 5.54901H22.6873V3.26147H23.4603V5.54901Z" fill="black" stroke="black"/>
<path d="M20.6121 52.5456H19.4336V56.0331H20.6121V52.5456Z" fill="black" stroke="black"/>
<path d="M30.0528 4.03455V3.26101H29.2124V4.03455H30.0528Z" fill="black" stroke="black"/>
<path d="M30.6625 54.8546V56.0339H29.3812V54.8546H30.6625Z" fill="black" stroke="black"/>
<path d="M23.4596 4.03455V3.26101H24.3V4.03455H23.4596Z" fill="black" stroke="black"/>
<path d="M20.6111 54.8546V56.0339H21.8923V54.8546H20.6111Z" fill="black" stroke="black"/>
<path d="M30.0522 3.26147V2.1138H28.5382V3.26147H30.0522Z" fill="black" stroke="black"/>
<path d="M30.6616 56.0331V57.7828H28.3535V56.0331H30.6616Z" fill="black" stroke="black"/>
<path d="M23.4603 3.26147V2.1138H24.9742V3.26147H23.4603Z" fill="black" stroke="black"/>
<path d="M20.612 56.0331V57.7828H22.9202V56.0331H20.612Z" fill="black" stroke="black"/>
<path d="M29.2123 2.47693V1.32925H27.6984V2.47693H29.2123Z" fill="black" stroke="black"/>
<path d="M29.3814 57.229V58.9787H27.0732V57.229H29.3814Z" fill="black" stroke="black"/>
<path d="M24.3001 2.47693V1.32925H25.8141V2.47693H24.3001Z" fill="black" stroke="black"/>
<path d="M21.8923 57.229V58.9787H24.2004V57.229H21.8923Z" fill="black" stroke="black"/>
<path d="M28.3045 1.40881V0.499953L26.6539 0.499953V1.40881H28.3045Z" fill="black" stroke="black"/>
<path d="M28.8595 58.8575V60.2431H25.4808V58.8575H28.8595Z" fill="black" stroke="black"/>
<path d="M25.208 1.40881V0.499953L26.8585 0.499953V1.40881H25.208Z" fill="black" stroke="black"/>
<path d="M22.7441 58.8575V60.2431H25.7928V58.8575H22.7441Z" fill="black" stroke="black"/>
<path d="M31.5981 6.0863H31.7578V6.76222H31.5981V6.0863Z" fill="black"/>
<path d="M33.0186 51.7263H33.262V50.6959H33.0186V51.7263Z" fill="black"/>
<path d="M21.9143 6.0863H21.7546V6.76222H21.9143V6.0863Z" fill="black"/>
<path d="M18.2551 51.7263H18.0117V50.6959H18.2551V51.7263Z" fill="black"/>
<path d="M37.4789 18.7745H38.2785H39.0244V19.5607V21.8902H38.2912V19.5607H37.4789V18.7745Z" fill="black"/>
<path d="M39.0244 19.5607V18.7745H38.2785H37.4789V19.5607H38.2912M39.0244 19.5607V21.8902H38.2912V19.5607M39.0244 19.5607H38.2912" stroke="black"/>
<path d="M12.0724 20.8726H11.2728H10.5268V21.6587V23.9883H11.26V21.6587H12.0724V20.8726Z" fill="black"/>
<path d="M10.5268 21.6587V20.8726H11.2728H12.0724V21.6587H11.26M10.5268 21.6587V23.9883H11.26V21.6587M10.5268 21.6587H11.26" stroke="black"/>
<path d="M41.8431 56.0331H42.5623V57.4656H43.4077V65.5791H42.7011V66.3524H41.8431V64.8809H42.6892L42.5623 57.4656V58.277H41.8431V56.0331Z" fill="black"/>
<path d="M42.5623 57.4656V56.0331H41.8431V58.277H42.5623V57.4656ZM42.5623 57.4656H43.4077V65.5791H42.7011L42.6892 64.8809M42.5623 57.4656L42.6892 64.8809M42.6892 64.8809H41.8431V66.3524H42.7011V64.8809" stroke="black"/>
<path d="M10.0651 56.0331H9.19762V57.4588H8.178V65.5338H9.03022V66.3034H10.0651V64.839H9.04462L9.19762 57.4588V58.2663H10.0651V56.0331Z" fill="black"/>
<path d="M9.19762 57.4588V56.0331H10.0651V58.2663H9.19762V57.4588ZM9.19762 57.4588H8.178V65.5338H9.03022L9.04462 64.839M9.19762 57.4588L9.04462 64.839M9.04462 64.839H10.0651V66.3034H9.03022V64.839" stroke="black"/>
<path d="M40.2346 65.5985H41.7863V66.9928V67.9056H43.5709V68.8183H45.1923V69.629H43.5501L43.5709 68.8183H41.7863H41.0105V66.9928H40.2346V65.5985Z" fill="black"/>
<path d="M41.7863 66.9928V65.5985H40.2346V66.9928H41.0105M41.7863 66.9928H41.0105M41.7863 66.9928V67.9056M41.0105 66.9928V68.8183H41.7863M41.7863 68.8183V67.9056M41.7863 68.8183H43.5709M41.7863 67.9056H43.5709V68.8183M43.5709 68.8183H45.1923V69.629H43.5501L43.5709 68.8183Z" stroke="black"/>
<path d="M11.3511 65.5985H9.79936V66.9928V67.9056H8.01479V68.8183H6.39339V69.629H8.01479V68.8183H9.79936H10.5752V66.9928H11.3511V65.5985Z" fill="black"/>
<path d="M9.79936 66.9928V65.5985H11.3511V66.9928H10.5752M9.79936 66.9928H10.5752M9.79936 66.9928V67.9056M10.5752 66.9928V68.8183H9.79936M9.79936 68.8183V67.9056M9.79936 68.8183H8.01479M9.79936 67.9056H8.01479V68.8183M8.01479 68.8183V69.629H6.39339V68.8183H8.01479Z" stroke="black"/>
<path d="M30.4711 56.0131H41.8574V57.8899H30.4711V56.0131Z" fill="black" stroke="black"/>
<path d="M10.0651 56.0331H21.8923V57.9099H10.0651V56.0331Z" fill="black" stroke="black"/>
<path d="M36.2436 46.0406L42.5398 56.0633L30.6951 56.0632L36.2436 46.0406Z" fill="#B3201D" stroke="black"/>
<path d="M14.6701 46.0104L20.9663 56.033L9.12158 56.0329L14.6701 46.0104Z" fill="#B3201D" stroke="black"/>
<path d="M14.1306 45.6825L8.21704 57.4687H9.1583L13.6395 56.0773L14.1306 45.6825Z" fill="black" stroke="black"/>
<path d="M37.1134 45.8058L43.3893 57.592H42.3904L37.6346 56.2006L37.1134 45.8058Z" fill="black" stroke="black"/>
<rect x="14.2325" y="41.3171" width="22.8809" height="14.7159" fill="#B22222"/>
<rect x="22.9202" y="56.0632" width="5.83528" height="3.06955" fill="black"/>
<path d="M22.8742 35.8211H22.0851V34.1881H22.8742V33.3921H23.6838V35.0046H22.8742V35.8211Z" fill="black"/>
<path d="M22.8742 35.0046V34.1881H22.0851V35.8211H22.8742V35.0046ZM22.8742 35.0046H23.6838V33.3921H22.8742V35.0046Z" stroke="black"/>
<path d="M23.6978 32.5098H28.6896V33.4204H29.5431V34.976H28.6352V34.1335H23.6978V32.5098Z" fill="black"/>
<path d="M28.6896 33.4204V34.1335H28.6352M28.6896 33.4204V32.5098H23.6978V34.1335H28.6352M28.6896 33.4204H29.5431V34.976H28.6352V34.1335" stroke="black"/>
<path d="M22.7718 26.6325H20.3189V23.5245H21.1721L21.1721 22.6256H19.5115V21.8791H17.8508V20.2336H20.3189V21.1325H22.0253V21.8791L23.5488 21.8334V22.6256H24.463V21.9095H25.3314V23.5245H24.463H22.7718V26.6325Z" fill="black"/>
<path d="M22.0253 23.5245H22.7718V26.6325H20.3189V23.5245H21.1721M22.0253 23.5245V22.6256M22.0253 23.5245H21.1721M22.0253 23.5245H24.463M22.0253 22.6256H21.1721M22.0253 22.6256V21.8791M21.1721 22.6256H19.5115V21.8791M21.1721 22.6256L21.1721 23.5245M24.463 23.5245H25.3314V21.9095H24.463V22.6256M24.463 23.5245V22.6256M24.463 22.6256H23.5488V21.8334L22.0253 21.8791M22.0253 21.8791V21.1325H20.3189M20.3189 21.1325H19.5115V21.8791M20.3189 21.1325V20.2336H17.8508V21.8791L19.5115 21.8791" stroke="black"/>
<path d="M30.0309 26.6325H32.4838V23.5245H31.6306L31.6306 22.6256H33.2913V21.8791H34.9519V20.2336H32.4838V21.1325H30.7774V21.8791L29.2539 21.8334V22.6256H28.3398V21.9095H27.4714V23.5245H28.3398H30.0309V26.6325Z" fill="black"/>
<path d="M30.7774 23.5245H30.0309V26.6325H32.4838V23.5245H31.6306M30.7774 23.5245V22.6256M30.7774 23.5245H31.6306M30.7774 23.5245H28.3398M30.7774 22.6256H31.6306M30.7774 22.6256V21.8791M31.6306 22.6256H33.2913V21.8791M31.6306 22.6256L31.6306 23.5245M28.3398 23.5245H27.4714V21.9095H28.3398V22.6256M28.3398 23.5245V22.6256M28.3398 22.6256H29.2539V21.8334L30.7774 21.8791M30.7774 21.8791V21.1325H32.4838M32.4838 21.1325H33.2913V21.8791M32.4838 21.1325V20.2336H34.9519V21.8791L33.2913 21.8791" stroke="black"/>
<path d="M17.41 50.8417V49.7333V48.62V47.5116H18.5184V48.62V49.7333V50.8417H17.41ZM18.5184 51.955V50.8417H19.6317V51.955H18.5184ZM18.5184 47.5116V46.3983H19.6317V47.5116H18.5184ZM19.6317 53.0634V51.955H20.7401H21.8534H22.9618V53.0634H21.8534H20.7401H19.6317ZM19.6317 46.3983V45.2899H20.7401H21.8534V46.3983H20.7401H19.6317ZM20.7401 49.7333V48.62H21.8534H22.9618H24.0751H25.1835V49.7333H24.0751V50.8417V51.955H22.9618V50.8417V49.7333H21.8534H20.7401ZM21.8534 47.5116V46.3983H22.9618V47.5116H21.8534ZM26.2968 53.0634V51.955H27.4052V50.8417V49.7333V48.62V47.5116V46.3983H26.2968V45.2899H27.4052H28.5184V46.3983V47.5116H29.6268V48.62H28.5184V49.7333V50.8417V51.955H29.6268V53.0634H28.5184H27.4052H26.2968ZM29.6268 49.7333V48.62H30.7401V49.7333H29.6268ZM30.7401 50.8417V49.7333H31.8485V48.62V47.5116V46.3983H30.7401V45.2899H31.8485H32.9618H34.0702V46.3983H32.9618V47.5116V48.62V49.7333V50.8417V51.955H34.0702V53.0634H32.9618H31.8485V51.955V50.8417H30.7401Z" fill="white"/>
</svg>
