<svg width="124" height="183" viewBox="0 0 124 183" fill="none" xmlns="http://www.w3.org/2000/svg">
<rect x="82.5251" y="167.185" width="20.4453" height="13.6908" fill="#EE942C"/>
<rect x="76.5967" y="48.255" width="20.4453" height="54.9129" fill="#EE942C"/>
<rect x="96.0562" y="77.5116" width="24.8446" height="21.8017" fill="#EE942C"/>
<rect x="76.8889" y="74.9986" width="40.2663" height="21.8017" fill="#EE942C"/>
<rect x="58.4514" y="54.6426" width="41.482" height="21.8017" fill="#EE942C"/>
<rect x="94.9373" y="67.1047" width="9.38272" height="21.8017" fill="#EE942C"/>
<rect x="35.0015" y="45.1092" width="4.65595" height="64.2256" fill="#EE942C"/>
<rect width="9.79288" height="58.3343" transform="matrix(-1 0 0 1 39.7239 47.0114)" fill="#EE942C"/>
<rect width="8.85152" height="57.1587" transform="matrix(-1 0 0 1 35.2595 45.3185)" fill="#EE942C"/>
<rect width="9.32677" height="41.8469" transform="matrix(0 -1 -1 0 88.1035 36.405)" fill="#EE942C"/>
<rect width="9.32677" height="29.2625" transform="matrix(0 -1 -1 0 81.5964 27.2168)" fill="#EE942C"/>
<rect width="9.32677" height="33.4578" transform="matrix(0 -1 -1 0 83.7639 34.3549)" fill="#EE942C"/>
<rect width="9.32677" height="17.418" transform="matrix(0 -1 -1 0 76.0347 17.9433)" fill="#EE942C"/>
<rect width="9.41628" height="16.8828" transform="matrix(0 -1 -1 0 71.5862 22.5533)" fill="#EE942C"/>
<rect width="9.41628" height="16.8828" transform="matrix(0 -1 -1 0 70.8782 25.0276)" fill="#EE942C"/>
<rect width="9.41689" height="12.4346" transform="matrix(0 -1 -1 0 73.176 12.0157)" fill="#EE942C"/>
<rect width="9.32677" height="17.418" transform="matrix(0 -1 -1 0 78.8096 22.5533)" fill="#EE942C"/>
<rect width="8.85152" height="35.9209" transform="matrix(-1 0 0 1 31.1743 65.5435)" fill="#EE942C"/>
<rect width="8.85209" height="12.5028" transform="matrix(-1 0 0 1 28.5583 72.1649)" fill="#EE942C"/>
<rect width="14.04" height="22.1838" transform="matrix(-1 0 0 1 17.3582 82.8159)" fill="#EE942C"/>
<rect width="14.0409" height="13.8283" transform="matrix(-1 0 0 1 16.1414 86.5243)" fill="#EE942C"/>
<rect width="14.0409" height="13.8283" transform="matrix(-1 0 0 1 20.0332 80.9647)" fill="#EE942C"/>
<rect width="14.0409" height="13.8283" transform="matrix(-1 0 0 1 25.4668 87.5579)" fill="#EE942C"/>
<rect width="7.82333" height="2.72088" transform="matrix(-1 0 0 1 19.5234 101.095)" fill="#EE942C"/>
<rect x="38.4602" y="47.6086" width="54.7151" height="100.497" fill="#EE942C"/>
<rect x="83.1182" y="145.764" width="23.7919" height="21.4204" fill="#F6E2B9"/>
<rect x="22.3228" y="145.613" width="26.1015" height="21.4204" fill="#F6E2B9"/>
<rect x="78.3359" y="145.371" width="18.5094" height="9.37724" fill="#F6E2B9"/>
<rect x="73.6038" y="145.279" width="18.5094" height="7.26339" fill="#F6E2B9"/>
<rect x="36.4011" y="145.01" width="18.5094" height="7.26339" fill="#F6E2B9"/>
<rect x="26.071" y="169.021" width="20.4453" height="11.3137" fill="#EE942C"/>
<rect width="20.4453" height="6.84538" transform="matrix(1 0 0 -1 15.7256 180.334)" fill="#EE942C"/>
<rect x="93.179" y="173.489" width="20.4453" height="5.95274" fill="#EE942C"/>
<path d="M111.772 177.426V175.526H115.974V177.426V181.785H113.945H109.197H80.666V179.605V173.43H82.4659L82.3672 179.605H103.15V177.576H105.022V179.605H109.197H109.456V177.426H111.413V179.605H113.909L113.873 177.426H111.772Z" fill="black"/>
<path d="M115.974 177.426V175.526H111.772V177.426H113.873M115.974 177.426H113.873M115.974 177.426V181.785H113.945M113.945 181.785L113.909 179.605M113.945 181.785H109.197M113.873 177.426L113.909 179.605M113.909 179.605H111.413M109.197 179.605V181.785M109.197 179.605H109.456M109.197 179.605H105.022M109.197 181.785H80.666V179.605M111.413 179.605V177.426H109.456V179.605M111.413 179.605H109.456M80.666 179.605V173.43H82.4659L82.3672 179.605M80.666 179.605H82.3672M105.022 179.605V177.576H103.15V179.605M105.022 179.605H103.15M103.15 179.605H82.3672" stroke="black"/>
<path d="M17.2692 177.426V175.526H13.0676V177.426V181.785H15.0964H19.8448H48.3755V179.605V173.43H46.5756L46.6743 179.605H25.8914V177.576H24.0192V179.605H19.8448H19.5858V177.426H17.6289V179.605H15.1324L15.1684 177.426H17.2692Z" fill="black"/>
<path d="M13.0676 177.426V175.526H17.2692V177.426H15.1684M13.0676 177.426H15.1684M13.0676 177.426V181.785H15.0964M15.0964 181.785L15.1324 179.605M15.0964 181.785H19.8448M15.1684 177.426L15.1324 179.605M15.1324 179.605H17.6289M19.8448 179.605V181.785M19.8448 179.605H19.5858M19.8448 179.605H24.0192M19.8448 181.785H48.3755V179.605M17.6289 179.605V177.426H19.5858V179.605M17.6289 179.605H19.5858M48.3755 179.605V173.43H46.5756L46.6743 179.605M48.3755 179.605H46.6743M24.0192 179.605V177.576H25.8914V179.605M24.0192 179.605H25.8914M25.8914 179.605H46.6743" stroke="black"/>
<path d="M84.5006 173.49H82.5251V164.916H84.5006V167.208V173.49Z" fill="black" stroke="black"/>
<path d="M44.5409 173.49H46.5164V164.916H44.5409V167.208V173.49Z" fill="black" stroke="black"/>
<path d="M101.13 167.034H84.6111V169.021H101.13V167.034Z" fill="black" stroke="black"/>
<path d="M27.9113 167.034H44.4304V169.021H27.9113V167.034Z" fill="black" stroke="black"/>
<path d="M82.4637 167.185H80.4659L80.4659 156.805H78.3533V154.796H76.3095V152.784L72.3198 152.787V150.771H74.3147L70.0775 150.635C70.0686 149.932 70.0561 148.526 70.0775 148.526H74.3147V150.771H76.3095H78.1125L78.3533 154.796V152.787H80.4659L80.4659 155.129H82.4637H84.3925V156.805H82.4637V167.185Z" fill="black"/>
<path d="M88.1814 156.805H84.714V158.895H88.1814V156.805Z" fill="black"/>
<path d="M82.4637 155.129H80.4659V156.805M82.4637 155.129V156.805M82.4637 155.129H84.3925V156.805H82.4637M82.4637 156.805V167.185H80.4659L80.4659 156.805M80.4659 156.805L80.4659 152.787H78.3533V154.796M80.4659 156.805H78.3533V154.796M78.3533 154.796H76.3095V152.784M78.3533 154.796L78.1125 150.771H76.3095M76.3095 150.771V152.784M76.3095 150.771H74.3147M76.3095 152.784L72.3198 152.787V150.771H74.3147M74.3147 150.771V148.526C72.9112 148.526 70.0988 148.526 70.0775 148.526C70.0561 148.526 70.0686 149.932 70.0775 150.635L74.3147 150.771ZM84.714 156.805H88.1814V158.895H84.714V156.805Z" stroke="black"/>
<path d="M46.5776 167.185H48.5754L48.5754 156.805H50.688V154.796H52.7317V152.784L56.7215 152.787V150.771H54.7266L58.9638 150.635C58.9727 149.932 58.9851 148.526 58.9638 148.526H54.7266V150.771H52.7317H50.9288L50.688 154.796V152.787H48.5754L48.5754 155.129H46.5776H44.6487V156.805H46.5776V167.185Z" fill="black"/>
<path d="M40.8598 156.805H44.3272V158.895H40.8598V156.805Z" fill="black"/>
<path d="M46.5776 155.129H48.5754V156.805M46.5776 155.129V156.805M46.5776 155.129H44.6487V156.805H46.5776M46.5776 156.805V167.185H48.5754L48.5754 156.805M48.5754 156.805L48.5754 152.787H50.688V154.796M48.5754 156.805H50.688V154.796M50.688 154.796H52.7317V152.784M50.688 154.796L50.9288 150.771H52.7317M52.7317 150.771V152.784M52.7317 150.771H54.7266M52.7317 152.784L56.7215 152.787V150.771H54.7266M54.7266 150.771V148.526C56.1301 148.526 58.9424 148.526 58.9638 148.526C58.9851 148.526 58.9727 149.932 58.9638 150.635L54.7266 150.771ZM44.3272 156.805H40.8598V158.895H44.3272V156.805Z" stroke="black"/>
<path d="M0.599658 84.7903H2.78174" stroke="black"/>
<path d="M119.336 97.9066V96.1537H123.392V97.9066H120.965V99.785H119.082V101.951H117.353H114.425V104.024H108.838V101.951H104.681V100.062H117.353V99.785V97.9066H119.336Z" fill="black"/>
<path d="M119.336 97.9066V96.1537H123.392V97.9066H120.965M119.336 97.9066H120.965M119.336 97.9066H117.353V99.785M120.965 97.9066V99.785H119.082M117.353 99.785H119.082M117.353 99.785V100.062M119.082 99.785V101.951H117.353M117.353 101.951V100.062M117.353 101.951H114.425M117.353 100.062H104.681V101.951H108.838M114.425 101.951V104.024H108.838V101.951M114.425 101.951H108.838" stroke="black"/>
<path d="M4.55566 103.217V101.464H0.499987V103.217H2.92688V105.096H4.8104V107.261H6.53924H9.46671V109.335H15.054V107.261H19.2107V105.372H6.53924V105.096V103.217H4.55566Z" fill="black"/>
<path d="M4.55566 103.217V101.464H0.499986V103.217H2.92688M4.55566 103.217H2.92688M4.55566 103.217H6.53924V105.096M2.92688 103.217V105.096H4.8104M6.53924 105.096H4.8104M6.53924 105.096V105.372M4.8104 105.096V107.261H6.53924M6.53924 107.261V105.372M6.53924 107.261H9.46671M6.53924 105.372H19.2107V107.261H15.054M9.46671 107.261V109.335H15.054V107.261M9.46671 107.261H15.054" stroke="black"/>
<path d="M108.505 98.0263V100.035H102.479V98.0263V96.2105H98.4756V94.3947V93.9319H96.2637V83.7839H98.2438L98.2824 81.7252H100.279V85.4762H98.2824L98.4756 93.9319V91.9472H100.279V94.3947H102.479H104.498V98.0263H108.505Z" fill="black"/>
<path d="M102.479 98.0263V100.035H108.505V98.0263H104.498M102.479 98.0263H104.498M102.479 98.0263V96.2105M104.498 98.0263V94.3947H102.479M102.479 94.3947V96.2105M102.479 94.3947H100.279M102.479 96.2105H98.4756V94.3947M98.4756 94.3947H100.279M98.4756 94.3947V93.9319M100.279 94.3947V91.9472H98.4756V93.9319M98.4756 93.9319H96.2637V83.7839H98.2438M98.4756 93.9319L98.2824 85.4762M98.2438 83.7839L98.2824 85.4762M98.2438 83.7839L98.2824 81.7252H100.279V85.4762H98.2824" stroke="black"/>
<path d="M15.3873 103.337V105.346H21.4132V103.337V101.521H25.4165V99.7054V99.2426H27.6284V89.0946H25.6483L25.6097 87.0359H23.613V90.7869H25.6097L25.4165 99.2426V97.2579H23.613V99.7054H21.4132H19.3942V103.337H15.3873Z" fill="black"/>
<path d="M21.4132 103.337V105.346H15.3873V103.337H19.3942M21.4132 103.337H19.3942M21.4132 103.337V101.521M19.3942 103.337V99.7054H21.4132M21.4132 99.7054V101.521M21.4132 99.7054H23.613M21.4132 101.521H25.4165V99.7054M25.4165 99.7054H23.613M25.4165 99.7054V99.2426M23.613 99.7054V97.2579H25.4165V99.2426M25.4165 99.2426H27.6284V89.0946H25.6483M25.4165 99.2426L25.6097 90.7869M25.6483 89.0946L25.6097 90.7869M25.6483 89.0946L25.6097 87.0359H23.613V90.7869H25.6097" stroke="black"/>
<path d="M100.284 83.4482V81.7252H104.374V83.4482V85.6162H106.467V83.4482H106.654V83.3294V82.3482L108.717 81.5228H110.781V82.3482V83.3294H106.654V83.4482H108.99V85.6162V87.7842V89.8997H110.781V92.0153H115.212V89.6147H112.8V87.599H117.155V92.0153V93.898L110.781 94.1241V97.8573H108.99V92.0153H106.467V87.7842H104.374H102.329V83.4482H100.284Z" fill="black"/>
<path d="M104.374 83.4482V81.7252H100.284V83.4482H102.329M104.374 83.4482H102.329M104.374 83.4482V85.6162M102.329 83.4482V87.7842H104.374M104.374 87.7842V85.6162M104.374 87.7842H106.467M104.374 85.6162H106.467M108.99 85.6162V87.7842M108.99 85.6162H106.467M108.99 85.6162V83.4482H106.654M108.99 87.7842H106.467M108.99 87.7842V89.8997M106.467 85.6162V83.4482H106.654M106.654 83.4482V83.3294M106.654 82.3482V83.3294M106.654 82.3482H108.717M106.654 82.3482L108.717 81.5228M110.781 82.3482V83.3294H106.654M110.781 82.3482H108.717M110.781 82.3482V81.5228H108.717M108.717 82.3482V81.5228M106.467 87.7842V92.0153H108.99V89.8997M108.99 89.8997H110.781V92.0153M108.99 89.8997V97.8573H110.781V94.1241M110.781 92.0153V94.1241M110.781 92.0153H115.212M117.155 92.0153V93.898L110.781 94.1241M117.155 92.0153V87.599H112.8V89.6147H115.212V92.0153M117.155 92.0153H115.212" stroke="black"/>
<path d="M23.6082 88.7583V87.0353H19.5183V88.7583V90.9263H17.4254V88.7583H17.2385V88.6394V87.6583L15.175 86.8329H13.1115V87.6583V88.6394H17.2385V88.7583H14.9025V90.9263V93.0942V95.2098H13.1115V97.3253H8.68041V94.9247H11.092V92.9091H6.73673V97.3253V99.208L13.1115 99.4342V103.167H14.9025V97.3253H17.4254V93.0942H19.5183H21.5632V88.7583H23.6082Z" fill="black"/>
<path d="M19.5183 88.7583V87.0353H23.6082V88.7583H21.5632M19.5183 88.7583H21.5632M19.5183 88.7583V90.9263M21.5632 88.7583V93.0942H19.5183M19.5183 93.0942V90.9263M19.5183 93.0942H17.4254M19.5183 90.9263H17.4254M14.9025 90.9263V93.0942M14.9025 90.9263H17.4254M14.9025 90.9263V88.7583H17.2385M14.9025 93.0942H17.4254M14.9025 93.0942V95.2098M17.4254 90.9263V88.7583H17.2385M17.2385 88.7583V88.6394M17.2385 87.6583V88.6394M17.2385 87.6583H15.175M17.2385 87.6583L15.175 86.8329M13.1115 87.6583V88.6394H17.2385M13.1115 87.6583H15.175M13.1115 87.6583V86.8329H15.175M15.175 87.6583V86.8329M17.4254 93.0942V97.3253H14.9025V95.2098M14.9025 95.2098H13.1115V97.3253M14.9025 95.2098V103.167H13.1115V99.4342M13.1115 97.3253V99.4342M13.1115 97.3253H8.68041M6.73673 97.3253V99.208L13.1115 99.4342M6.73673 97.3253V92.9091H11.092V94.9247H8.68041V97.3253M6.73673 97.3253H8.68041" stroke="black"/>
<path d="M100.381 79.3926V81.7099H104.359H104.741V79.3926H100.381Z" fill="black" stroke="black"/>
<path d="M23.5107 84.7029V87.0202H19.5332H19.151V84.7029H23.5107Z" fill="black" stroke="black"/>
<path d="M102.483 75.6539V79.3567H104.693V77.6248H104.371V75.6539H102.483Z" fill="black" stroke="black"/>
<path d="M21.4087 80.9647V84.6675H19.199V82.9356H19.5215V80.9647H21.4087Z" fill="black" stroke="black"/>
<path d="M98.3086 54.6426H100.316V58.9123H102.276V64.4883H104.187L104.32 71.0198H102.276V67.234H99.9657V60.7266H98.1514V54.6426H98.3086Z" fill="black"/>
<path d="M98.3086 54.6426H100.316M100.316 54.6426H98.1514V60.7266H100.316V58.9123M100.316 54.6426V58.9123M100.316 58.9123H102.276M102.276 58.9123H99.9657V67.234H102.276M102.276 58.9123V64.4883M102.276 67.234V64.4883M102.276 67.234V71.0198H104.32L104.187 64.4883H102.276" stroke="black"/>
<path d="M25.5835 59.9533H23.5756V64.223H21.6162V69.799H19.7051L19.572 76.3306H21.6162V72.5447H23.9264V66.0373H25.7407V59.9533H25.5835Z" fill="black"/>
<path d="M25.5835 59.9533H23.5756M23.5756 59.9533H25.7407V66.0373H23.5756V64.223M23.5756 59.9533V64.223M23.5756 64.223H21.6162M21.6162 64.223H23.9264V72.5447H21.6162M21.6162 64.223V69.799M21.6162 72.5447V69.799M21.6162 72.5447V76.3306H19.572L19.7051 69.799H21.6162" stroke="black"/>
<path d="M104.369 71.0198H106.365V73.295H116.984V75.3175L115.226 75.3368H119.305V77.2737H121.082V79.4455H123.306V96.0745H119.367V94.2465H121.108L121.082 81.7115H119.305V79.4455H117.108V77.2737H115.226V75.3368L106.365 75.4338V77.5726H104.369V71.0198Z" fill="black"/>
<path d="M106.365 73.295V71.0198H104.369V77.5726H106.365V75.4338M106.365 73.295H116.984V75.3175L115.226 75.3368M106.365 73.295V75.4338M106.365 75.4338L115.226 75.3368M115.226 75.3368V77.2737H117.108M115.226 75.3368H119.305V77.2737H117.108M117.108 77.2737V79.4455H119.305M117.108 77.2737H121.082V79.4455M121.082 79.4455H119.305M121.082 79.4455V81.7115M121.082 79.4455H123.306V96.0745H119.367V94.2465H121.108L121.082 81.7115M119.305 79.4455V81.7115H121.082" stroke="black"/>
<path d="M19.5234 76.3307H17.5266V78.6059H6.90782V80.6284L8.66561 80.6476H4.58691V82.5846H2.80984V84.7563H0.585661V101.385H4.5246V99.5573H2.78363L2.80984 87.0224H4.58691V84.7563H6.78437V82.5846H8.66561V80.6476L17.5266 80.7447V82.8834H19.5234V76.3307Z" fill="black"/>
<path d="M17.5266 78.6059V76.3307H19.5234V82.8834H17.5266V80.7447M17.5266 78.6059H6.90782V80.6284L8.66561 80.6476M17.5266 78.6059V80.7447M17.5266 80.7447L8.66561 80.6476M8.66561 80.6476V82.5846H6.78437M8.66561 80.6476H4.58691V82.5846H6.78437M6.78437 82.5846V84.7563H4.58691M6.78437 82.5846H2.80983V84.7563M2.80983 84.7563H4.58691M2.80983 84.7563V87.0224M2.80983 84.7563H0.585662V101.385H4.5246V99.5573H2.78363L2.80983 87.0224M4.58691 84.7563V87.0224H2.80983" stroke="black"/>
<path d="M92.0541 34.4026H88.0858V32.4693H85.9694V30.5564V28.5418L83.8734 28.5825V26.5272V25.2615H83.5941H81.5845V18.8569H83.5941V23.0473H83.8734H85.9694V26.5272H88.0197V30.5564H90.0699V32.4693H92.0541V34.4026Z" fill="black"/>
<path d="M88.0858 32.4693V34.4026H92.0541V32.4693H90.0699M88.0858 32.4693H90.0699M88.0858 32.4693H85.9694V30.5564M90.0699 32.4693V30.5564H88.0197M85.9694 30.5564H88.0197M85.9694 30.5564V28.5418M88.0197 30.5564V26.5272H85.9694V28.5418M85.9694 28.5418L83.8734 28.5825V26.5272V25.2615M85.9694 28.5418V23.0473H83.8734M83.8734 23.0473V25.2615M83.8734 23.0473H83.5941M83.8734 25.2615H83.5941M83.5941 25.2615H81.5845V18.8569H83.5941V23.0473M83.5941 25.2615V23.0473" stroke="black"/>
<path d="M102.402 100.316H96.3525V103.263H93.126V106.179V109.251L89.9305 109.189V112.322V114.252H89.5047H86.4409V124.016H89.5047L89.289 119.205H89.6898H91.2129H93.3373L93.1912 112.322H96.2517V106.179H99.3774V103.263H102.402V100.316Z" fill="black"/>
<path d="M96.3525 103.263V100.316H102.402V103.263H99.3774M96.3525 103.263H99.3774M96.3525 103.263H93.126V106.179M99.3774 103.263V106.179H96.2517M93.126 106.179H96.2517M93.126 106.179V109.251M96.2517 106.179V112.322H93.126V109.251M93.126 109.251L89.9305 109.189V112.322V114.252M93.126 109.251L93.3373 119.205H91.2129H89.6898M89.6898 119.205L89.9305 114.252M89.6898 119.205H89.289M89.9305 114.252H89.5047M89.5047 114.252H86.4409V124.016H89.5047L89.289 119.205M89.5047 114.252L89.289 119.205" stroke="black"/>
<path d="M41.8644 34.4026H45.8326V32.4693H47.949V30.5564V28.5418L50.0451 28.5825V26.5272V25.2615H50.3244H52.334V18.8569H50.3244V23.0473H50.0451H47.949V26.5272H45.8988V30.5564H43.8485V32.4693H41.8644V34.4026Z" fill="black"/>
<path d="M45.8326 32.4693V34.4026H41.8644V32.4693H43.8485M45.8326 32.4693H43.8485M45.8326 32.4693H47.949V30.5564M43.8485 32.4693V30.5564H45.8988M47.949 30.5564H45.8988M47.949 30.5564V28.5418M45.8988 30.5564V26.5272H47.949V28.5418M47.949 28.5418L50.0451 28.5825V26.5272V25.2615M47.949 28.5418V23.0473H50.0451M50.0451 23.0473V25.2615M50.0451 23.0473H50.3244M50.0451 25.2615H50.3244M50.3244 25.2615H52.334V18.8569H50.3244V23.0473M50.3244 25.2615V23.0473" stroke="black"/>
<path d="M25.4667 101.706H31.7278V103.122H35.1257V106.038V109.11L38.3213 109.048V112.181V114.111H38.747H41.8108V123.875H38.747V119.577H34.8658L35.0495 112.181H32V106.038H28.8743L28.7029 103.122H25.4667V101.706Z" fill="black"/>
<path d="M31.7278 103.122V101.706H25.4667V103.122H28.7029M31.7278 103.122H28.7029M31.7278 103.122H35.1257V106.038M28.7029 103.122L28.8743 106.038H32M35.1257 106.038H32M35.1257 106.038V109.11M32 106.038V112.181H35.1257V109.11M35.1257 109.11L38.3213 109.048V112.181V114.111M35.1257 109.11L34.8658 119.577H38.747M38.747 119.577L38.3213 114.111M38.747 119.577V117.486M38.3213 114.111H38.747M38.747 114.111H41.8108V123.875H38.747V117.486M38.747 114.111V117.486" stroke="black"/>
<path d="M79.6399 21.0718H81.5966V14.7085H79.6399V21.0718Z" fill="black" stroke="black"/>
<path d="M83.458 120.359H86.4411V130.06H83.458V120.359Z" fill="black" stroke="black"/>
<path d="M54.2786 21.0718H52.3218V14.7085H54.2786V21.0718Z" fill="black" stroke="black"/>
<path d="M44.7937 120.359H41.8106V130.06H44.7937V120.359Z" fill="black" stroke="black"/>
<path d="M77.2583 16.3502H79.215V10.9133H77.2583V16.3502Z" fill="black" stroke="black"/>
<path d="M79.8274 127.557H82.8105V135.846H79.8274V127.557Z" fill="black" stroke="black"/>
<path d="M56.6599 16.3502H54.7032V10.9133H56.6599V16.3502Z" fill="black" stroke="black"/>
<path d="M48.4243 127.557H45.4412V135.846H48.4243V127.557Z" fill="black" stroke="black"/>
<path d="M75.3018 13.2806H77.2585V7.49005H75.3018V13.2806Z" fill="black" stroke="black"/>
<path d="M76.8445 132.237H79.8276V141.065H76.8445V132.237Z" fill="black" stroke="black"/>
<path d="M58.6167 13.2806H56.66V7.49005H58.6167V13.2806Z" fill="black" stroke="black"/>
<path d="M51.4072 132.237H48.4241V141.065H51.4072V132.237Z" fill="black" stroke="black"/>
<path d="M75.3034 9.44687V7.48879H73.176V9.44687H75.3034Z" fill="black" stroke="black"/>
<path d="M76.847 138.082V141.067H73.6038V138.082H76.847Z" fill="black" stroke="black"/>
<path d="M58.6151 9.44687V7.48879H60.7424V9.44687H58.6151Z" fill="black" stroke="black"/>
<path d="M51.4047 138.082V141.067H54.6479V138.082H51.4047Z" fill="black" stroke="black"/>
<path d="M75.3021 7.49005V4.58489H71.4697V7.49005H75.3021Z" fill="black" stroke="black"/>
<path d="M76.8448 141.065V145.494H71.0022V141.065H76.8448Z" fill="black" stroke="black"/>
<path d="M58.6163 7.49005V4.58489H62.4487V7.49005H58.6163Z" fill="black" stroke="black"/>
<path d="M51.4069 141.065V145.494H57.2495V141.065H51.4069Z" fill="black" stroke="black"/>
<path d="M73.1764 5.50427V2.59911L69.344 2.59911V5.50427H73.1764Z" fill="black" stroke="black"/>
<path d="M73.6044 144.092V148.521H67.7617V144.092H73.6044Z" fill="black" stroke="black"/>
<path d="M60.7421 5.50427V2.59911L64.5745 2.59911V5.50427H60.7421Z" fill="black" stroke="black"/>
<path d="M54.6476 144.092V148.521H60.4902V144.092H54.6476Z" fill="black" stroke="black"/>
<path d="M70.8783 2.80063V0.49999L66.7002 0.49999V2.80063L70.8783 2.80063Z" fill="black" stroke="black"/>
<path d="M72.2835 148.214V151.721H63.731V148.214H72.2835Z" fill="black" stroke="black"/>
<path d="M63.0401 2.80063V0.49999L67.2183 0.49999V2.80063L63.0401 2.80063Z" fill="black" stroke="black"/>
<path d="M56.8033 148.214V151.721H64.5208V148.214H56.8033Z" fill="black" stroke="black"/>
<path d="M79.2151 14.6402H79.6192V16.3512H79.2151V14.6402Z" fill="black"/>
<path d="M82.8105 130.163H83.4267V127.555H82.8105V130.163Z" fill="black"/>
<path d="M54.7034 14.6402H54.2992V16.3512H54.7034V14.6402Z" fill="black"/>
<path d="M45.4414 130.163H44.8252V127.555H45.4414V130.163Z" fill="black"/>
<path d="M94.1003 46.7565H96.1244H98.0127V48.7466V54.6434H96.1567V48.7466H94.1003V46.7565Z" fill="black"/>
<path d="M98.0127 48.7466V46.7565H96.1244H94.1003V48.7466H96.1567M98.0127 48.7466V54.6434H96.1567V48.7466M98.0127 48.7466H96.1567" stroke="black"/>
<path d="M29.792 52.067H27.7679H25.8797V54.057V59.9539H27.7357V54.057H29.792V52.067Z" fill="black"/>
<path d="M25.8797 54.057V52.067H27.7679H29.792V54.057H27.7357M25.8797 54.057V59.9539H27.7357V54.057M25.8797 54.057H27.7357" stroke="black"/>
<path d="M105.147 141.065H106.967V144.691H109.107V165.227H107.318V167.185H105.147V163.46H107.288L106.967 144.691V146.744H105.147V141.065Z" fill="black"/>
<path d="M106.967 144.691V141.065H105.147V146.744H106.967V144.691ZM106.967 144.691H109.107V165.227H107.318L107.288 163.46M106.967 144.691L107.288 163.46M107.288 163.46H105.147V167.185H107.318V163.46" stroke="black"/>
<path d="M24.7109 141.065H22.5153V144.673H19.9344V165.113H22.0916V167.061H24.7109V163.354H22.128L22.5153 144.673V146.717H24.7109V141.065Z" fill="black"/>
<path d="M22.5153 144.673V141.065H24.7109V146.717H22.5153V144.673ZM22.5153 144.673H19.9344V165.113H22.0916L22.128 163.354M22.5153 144.673L22.128 163.354M22.128 163.354H24.7109V167.061H22.0916V163.354" stroke="black"/>
<path d="M101.075 165.276H105.003V168.806V171.116H109.521V173.427H113.625V175.479H109.468L109.521 173.427H105.003H103.039V168.806H101.075V165.276Z" fill="black"/>
<path d="M105.003 168.806V165.276H101.075V168.806H103.039M105.003 168.806H103.039M105.003 168.806V171.116M103.039 168.806V173.427H105.003M105.003 173.427V171.116M105.003 173.427H109.521M105.003 171.116H109.521V173.427M109.521 173.427H113.625V175.479H109.468L109.521 173.427Z" stroke="black"/>
<path d="M27.9661 165.276H24.0381V168.806V171.116H19.5208V173.427H15.4165V175.479H19.5208V173.427H24.0381H26.0021V168.806H27.9661V165.276Z" fill="black"/>
<path d="M24.0381 168.806V165.276H27.9661V168.806H26.0021M24.0381 168.806H26.0021M24.0381 168.806V171.116M26.0021 168.806V173.427H24.0381M24.0381 173.427V171.116M24.0381 173.427H19.5208M24.0381 171.116H19.5208V173.427M19.5208 173.427V175.479H15.4165V173.427H19.5208Z" stroke="black"/>
<path d="M76.3621 141.014H105.183V145.764H76.3621V141.014Z" fill="black" stroke="black"/>
<path d="M24.7109 141.065H54.6479V145.815H24.7109V141.065Z" fill="black" stroke="black"/>
<path d="M90.9736 115.772L106.91 141.141L76.9292 141.141L90.9736 115.772Z" fill="#B3201D" stroke="black"/>
<path d="M36.3672 115.695L52.3038 141.064L22.3228 141.064L36.3672 115.695Z" fill="#B3201D" stroke="black"/>
<path d="M35.0015 114.865L20.0332 144.698H22.4157L33.7585 141.176L35.0015 114.865Z" fill="black" stroke="black"/>
<path d="M93.1753 115.177L109.061 145.01H106.532L94.4945 141.488L93.1753 115.177Z" fill="black" stroke="black"/>
<rect x="35.2595" y="103.816" width="57.9157" height="37.2487" fill="#B22222"/>
<rect x="57.2495" y="141.141" width="14.7711" height="7.77008" fill="black"/>
<path d="M57.1332 89.9049H55.1357V85.771H57.1332V83.7562H59.1827V87.838H57.1332V89.9049Z" fill="black"/>
<path d="M57.1332 87.838V85.771H55.1357V89.9049H57.1332V87.838ZM57.1332 87.838H59.1827V83.7562H57.1332V87.838Z" stroke="black"/>
<path d="M59.2175 81.5228H71.8536V83.8279H74.0141V87.7656H71.7159V85.633H59.2175V81.5228Z" fill="black"/>
<path d="M71.8536 83.8279V85.633H71.7159M71.8536 83.8279V81.5228H59.2175V85.633H71.7159M71.8536 83.8279H74.0141V87.7656H71.7159V85.633" stroke="black"/>
<path d="M56.8742 66.6463H50.6654V58.7794H52.825L52.825 56.5042H48.6216V54.6145H44.4182V50.4497H50.6654V52.7249H54.9846V54.6145L58.8409 54.4989V56.5042H61.1547V54.6917H63.3528V58.7794H61.1547H56.8742V66.6463Z" fill="black"/>
<path d="M54.9846 58.7794H56.8742V66.6463H50.6654V58.7794H52.825M54.9846 58.7794V56.5042M54.9846 58.7794H52.825M54.9846 58.7794H61.1547M54.9846 56.5042H52.825M54.9846 56.5042V54.6145M52.825 56.5042H48.6216V54.6145M52.825 56.5042L52.825 58.7794M61.1547 58.7794H63.3528V54.6917H61.1547V56.5042M61.1547 58.7794V56.5042M61.1547 56.5042H58.8409V54.4989L54.9846 54.6145M54.9846 54.6145V52.7249H50.6654M50.6654 52.7249H48.6216V54.6145M50.6654 52.7249V50.4497H44.4182V54.6145L48.6216 54.6145" stroke="black"/>
<path d="M75.2482 66.6463H81.4569V58.7794H79.2973L79.2973 56.5042H83.5007V54.6145H87.7041V50.4497H81.4569V52.7249H77.1378V54.6145L73.2814 54.4989V56.5042H70.9676V54.6917H68.7695V58.7794H70.9676H75.2482V66.6463Z" fill="black"/>
<path d="M77.1378 58.7794H75.2482V66.6463H81.4569V58.7794H79.2973M77.1378 58.7794V56.5042M77.1378 58.7794H79.2973M77.1378 58.7794H70.9676M77.1378 56.5042H79.2973M77.1378 56.5042V54.6145M79.2973 56.5042H83.5007V54.6145M79.2973 56.5042L79.2973 58.7794M70.9676 58.7794H68.7695V54.6917H70.9676V56.5042M70.9676 58.7794V56.5042M70.9676 56.5042H73.2814V54.4989L77.1378 54.6145M77.1378 54.6145V52.7249H81.4569M81.4569 52.7249H83.5007V54.6145M81.4569 52.7249V50.4497H87.7041V54.6145L83.5007 54.6145" stroke="black"/>
<path d="M41.3418 131.335V128.674H44.002V126.003V123.342V120.671V118.01H46.6738V120.671V123.342V126.003V128.674V131.335H44.002H41.3418ZM41.3418 118.01V115.339H44.002V118.01H41.3418ZM46.6738 118.01V115.339H49.334H52.0059V118.01H49.334H46.6738ZM52.0059 131.335V128.674V126.003V123.342V120.671V118.01H54.666V120.671V123.342V126.003V128.674V131.335H52.0059ZM54.666 118.01V115.339H57.3379H59.998V118.01H57.3379H54.666ZM59.998 131.335V128.674V126.003V123.342V120.671V118.01H62.6699V120.671V123.342V126.003V128.674H65.3418V131.335H62.6699H59.998ZM68.0137 131.335V128.674H70.6738V126.003V123.342V120.671V118.01H68.0137V115.339H70.6738H73.3457V118.01H76.0059V120.671H73.3457V123.342V126.003V128.674H76.0059V131.335H73.3457H70.6738H68.0137ZM76.0059 118.01V115.339H78.6777H81.3379V118.01H78.6777H76.0059ZM78.6777 131.335V128.674H81.3379V126.003V123.342V120.671V118.01H84.0098V120.671V123.342V126.003V128.674H86.6699V131.335H84.0098H81.3379H78.6777Z" fill="white"/>
<path d="M35.4769 40.5163L35.4089 43.5591H40.2235V40.5163H35.4769Z" fill="#D22D17"/>
<path d="M97.3375 45.7306L37.3938 45.6186V47.6325H97.3375V45.7306Z" fill="black"/>
<path d="M93.3619 34.8108L42.1851 34.7209V36.3375H93.3619V34.8108Z" fill="black"/>
<path d="M95.3237 36.3953L40.3257 35.8466V45.7104H95.3237V36.3953Z" fill="#D22D17"/>
<path d="M93.3621 34.8186V43.6846H95.3237V34.8186H93.3621Z" fill="black"/>
<path d="M40.2236 35.8466V41.4264H42.1853V35.8466H40.2236Z" fill="black"/>
<path d="M95.3522 42.2272L95.3237 45.7104H97.3376V42.2272H95.3522Z" fill="black"/>
<path d="M38.3402 41.4264L38.3118 43.5016H40.3257V41.4264H38.3402Z" fill="black"/>
<path d="M37.9142 38.3729L37.8796 40.4481H40.3256V38.3729H37.9142Z" fill="black"/>
<path d="M37.9081 45.6343L37.8796 43.5591H39.8935V45.6343H37.9081Z" fill="black"/>
<path d="M35.8941 38.3729L35.8657 40.4481H37.8796V38.3729H35.8941Z" fill="black"/>
<path d="M35.8941 45.6343L35.8657 43.5591H37.8796V45.6343H35.8941Z" fill="black"/>
<path d="M35.8941 36.2977L35.8657 38.3729H37.8796V36.2977H35.8941Z" fill="black"/>
<path d="M35.8941 47.7096L35.8657 45.6344H37.8796V47.7096H35.8941Z" fill="black"/>
<path d="M33.8805 36.2977L33.8521 38.3729H35.8659V36.2977H33.8805Z" fill="black"/>
<path d="M33.8805 47.7096L33.8521 45.6344H35.8659V47.7096H33.8805Z" fill="black"/>
<path d="M17.7167 36.0303L17.6841 38.3729H19.9968V36.0303H17.7167Z" fill="black"/>
<path d="M17.7167 47.977L17.6841 45.6344H19.9968V47.977H17.7167Z" fill="black"/>
<path d="M18.0154 38.0353V40.4481H27.2058V38.0353H18.0154Z" fill="black"/>
<path d="M15.3943 30.0721V38.3729H29.8242V30.0721H15.3943Z" fill="#D22D17"/>
<path d="M14.3872 49.3934V53.9352H30.0765V49.3934H14.3872Z" fill="#D22D17"/>
<path d="M16.7783 45.972V50.4022H32.4676V45.972H16.7783Z" fill="#D22D17"/>
<path d="M22.5127 34.2225V49.7848H35.8659V34.2225H22.5127Z" fill="#D22D17"/>
<path d="M18.0154 45.9719V43.5591H27.2058V45.9719H18.0154Z" fill="black"/>
<path d="M22.5127 40.237V42.3274H29.2242V40.237H22.5127Z" fill="black"/>
<path d="M22.5127 43.7703V41.6799H29.2242V43.7703H22.5127Z" fill="black"/>
<path d="M33.8805 34.2225L33.8521 36.2977H35.8659V34.2225H33.8805Z" fill="black"/>
<path d="M33.8805 49.7848L33.8521 47.7096H35.8659V49.7848H33.8805Z" fill="black"/>
<path d="M31.8666 34.2225L31.8381 36.2977H33.852V34.2225H31.8666Z" fill="black"/>
<path d="M31.8788 49.7848L31.8381 47.7096H34.723V49.7848H31.8788Z" fill="black"/>
<path d="M15.3376 35.26L15.3032 38.3729H17.7388V35.26H15.3376Z" fill="black"/>
<path d="M15.6994 48.7472L15.6702 45.6344H17.7387V48.7472H15.6994Z" fill="black"/>
<path d="M13.4419 34.0282L13.3804 35.5976H17.7389V34.0282H13.4419Z" fill="black"/>
<path d="M13.4419 49.979L13.3804 48.4097H17.7389V49.979H13.4419Z" fill="black"/>
<path d="M31.8666 32.1473L31.8381 34.2225H33.852V32.1473H31.8666Z" fill="black"/>
<path d="M31.3779 51.86L31.3425 49.7848H33.852V51.86H31.3779Z" fill="black"/>
<path d="M29.8526 32.1473L29.8242 34.2225H31.8381V32.1473H29.8526Z" fill="black"/>
<path d="M29.8526 51.86L29.8242 49.7848H31.8381V51.86H29.8526Z" fill="black"/>
<path d="M13.4088 31.9531L13.3804 34.0283H15.3943V31.9531H13.4088Z" fill="black"/>
<path d="M13.4088 52.0542L13.3804 49.979H15.3943V52.0542H13.4088Z" fill="black"/>
<path d="M29.8526 30.0721L29.8242 32.1473H31.8381V30.0721H29.8526Z" fill="black"/>
<path d="M29.8526 53.9352L29.8242 51.86H31.8381V53.9352H29.8526Z" fill="black"/>
<path d="M10.4336 27.9968V30.072H27.2059V27.9968H10.4336Z" fill="black"/>
<path d="M10.4336 56.0104V53.9352H27.2059V56.0104H10.4336Z" fill="black"/>
<path d="M24.6613 30.0721L24.5874 32.1473H29.8241V30.0721H24.6613Z" fill="black"/>
<path d="M24.6641 53.9352L24.5874 51.86H30.021V53.9352H24.6641Z" fill="black"/>
<path d="M10.5036 30.0721L10.4336 32.1473H15.3942V30.0721H10.5036Z" fill="black"/>
<path d="M10.5036 53.9352L10.4336 51.86H15.3942V53.9352H10.5036Z" fill="black"/>
<path d="M38.3402 43.5016L38.3118 45.7104H40.3257V43.5016H38.3402Z" fill="#D22D17"/>
</svg>
